<?xml version="1.0" standalone="no"?>
<!DOCTYPE svg PUBLIC "-//W3C//DTD SVG 20010904//EN"
 "http://www.w3.org/TR/2001/REC-SVG-20010904/DTD/svg10.dtd">
<svg version="1.0" xmlns="http://www.w3.org/2000/svg"
 width="512.000000pt" height="512.000000pt" viewBox="0 0 512.000000 512.000000"
 preserveAspectRatio="xMidYMid meet">
<metadata>
Created by potrace 1.11, written by Peter Selinger 2001-2013
</metadata>
<g transform="translate(0.000000,512.000000) scale(0.100000,-0.100000)"
fill="#000000" stroke="none">
<path d="M1259 4915 c-2 -1 -26 -5 -54 -8 -27 -3 -60 -8 -71 -11 -12 -2 -37
-7 -56 -10 -62 -10 -242 -77 -328 -122 -446 -236 -727 -704 -723 -1204 1 -201
38 -378 115 -550 16 -36 29 -66 29 -68 -2 -5 103 -169 132 -207 43 -55 71 -84
365 -387 l45 -47 -47 -48 c-95 -97 -136 -195 -133 -316 2 -101 34 -173 103
-237 72 -66 212 -120 311 -120 l43 0 0 -63 c0 -71 21 -163 51 -222 55 -106
177 -182 324 -199 22 -2 42 -5 45 -5 3 -1 6 -31 7 -67 5 -166 171 -359 328
-380 42 -6 44 -8 54 -53 18 -71 51 -130 106 -186 92 -94 204 -158 275 -157 59
2 169 57 244 124 l57 51 83 -82 c111 -108 169 -135 286 -136 101 0 160 19 238
77 92 69 152 185 154 303 l2 52 31 -7 c17 -4 39 -6 50 -5 11 2 41 5 67 9 168
21 312 196 304 370 l-2 46 55 -3 c211 -13 390 140 408 351 l6 69 63 -3 c282
-12 468 282 335 531 -11 22 -62 81 -112 133 l-92 93 39 41 c22 23 46 48 54 58
8 9 78 83 154 164 77 81 152 162 168 179 47 52 153 217 185 287 17 36 37 81
46 101 16 35 60 191 72 254 9 48 19 174 19 245 2 630 -458 1192 -1085 1325
-151 32 -370 36 -504 9 -11 -2 -33 -7 -50 -9 -107 -19 -285 -88 -405 -158
-147 -87 -238 -165 -400 -345 l-74 -83 -156 156 c-152 152 -233 220 -337 282
-136 83 -329 153 -488 177 -80 12 -327 20 -336 11z"/>
</g>
</svg>
