<svg data-v-5f19e91b="" xmlns="http://www.w3.org/2000/svg" width="551" height="79" viewBox="0 0 551 79"><!----> <!----> <!----> <g data-v-5f19e91b="" id="e7b6e015-b638-80d8-b858-58f38d95ec58" fill="black" transform="matrix(4.735595867300924,0,0,4.735595867300924,105.6133552135947,-1.076243584075165)"><path d="M3.26 12.29L3.26 4.44L0.29 4.44L0.29 2.69L8.26 2.69L8.26 4.44L5.29 4.44L5.29 12.29L3.26 12.29ZM12.82 12.46L12.82 12.46Q10.93 12.46 10.01 11.52L10.01 11.52L10.01 11.52Q9.09 10.58 9.09 8.61L9.09 8.61L9.09 8.61Q9.09 6.64 10.01 5.70L10.01 5.70L10.01 5.70Q10.93 4.76 12.82 4.76L12.82 4.76L12.82 4.76Q14.71 4.76 15.64 5.70L15.64 5.70L15.64 5.70Q16.58 6.64 16.58 8.61L16.58 8.61L16.58 8.61Q16.58 10.58 15.64 11.52L15.64 11.52L15.64 11.52Q14.71 12.46 12.82 12.46L12.82 12.46ZM12.82 10.89L12.82 10.89Q13.76 10.89 14.18 10.35L14.18 10.35L14.18 10.35Q14.60 9.81 14.60 8.72L14.60 8.72L14.60 8.50L14.60 8.50Q14.60 7.41 14.18 6.87L14.18 6.87L14.18 6.87Q13.76 6.33 12.82 6.33L12.82 6.33L12.82 6.33Q11.89 6.33 11.47 6.87L11.47 6.87L11.47 6.87Q11.06 7.41 11.06 8.50L11.06 8.50L11.06 8.72L11.06 8.72Q11.06 9.81 11.47 10.35L11.47 10.35L11.47 10.35Q11.89 10.89 12.82 10.89L12.82 10.89ZM21.38 12.46L21.38 12.46Q19.49 12.46 18.56 11.52L18.56 11.52L18.56 11.52Q17.64 10.58 17.64 8.61L17.64 8.61L17.64 8.61Q17.64 6.64 18.56 5.70L18.56 5.70L18.56 5.70Q19.49 4.76 21.38 4.76L21.38 4.76L21.38 4.76Q23.27 4.76 24.20 5.70L24.20 5.70L24.20 5.70Q25.13 6.64 25.13 8.61L25.13 8.61L25.13 8.61Q25.13 10.58 24.20 11.52L24.20 11.52L24.20 11.52Q23.27 12.46 21.38 12.46L21.38 12.46ZM21.38 10.89L21.38 10.89Q22.32 10.89 22.74 10.35L22.74 10.35L22.74 10.35Q23.16 9.81 23.16 8.72L23.16 8.72L23.16 8.50L23.16 8.50Q23.16 7.41 22.74 6.87L22.74 6.87L22.74 6.87Q22.32 6.33 21.38 6.33L21.38 6.33L21.38 6.33Q20.44 6.33 20.03 6.87L20.03 6.87L20.03 6.87Q19.61 7.41 19.61 8.50L19.61 8.50L19.61 8.72L19.61 8.72Q19.61 9.81 20.03 10.35L20.03 10.35L20.03 10.35Q20.44 10.89 21.38 10.89L21.38 10.89ZM30.28 12.46L30.28 12.46Q29.18 12.46 28.26 12.12L28.26 12.12L28.26 12.12Q27.34 11.77 26.80 11.10L26.80 11.10L26.80 11.10Q26.25 10.43 26.25 9.48L26.25 9.48L26.26 9.17L28.32 9.17L28.31 9.39L28.31 9.39Q28.31 10.01 28.85 10.37L28.85 10.37L28.85 10.37Q29.40 10.74 30.38 10.74L30.38 10.74L30.38 10.74Q31.42 10.74 31.88 10.46L31.88 10.46L31.88 10.46Q32.34 10.19 32.34 9.73L32.34 9.73L32.34 9.73Q32.34 9.32 32.04 9.05L32.04 9.05L32.04 9.05Q31.74 8.78 31.28 8.62L31.28 8.62L31.28 8.62Q30.83 8.46 30.03 8.23L30.03 8.23L30.03 8.23Q28.90 7.91 28.20 7.62L28.20 7.62L28.20 7.62Q27.50 7.32 26.99 6.74L26.99 6.74L26.99 6.74Q26.49 6.16 26.49 5.21L26.49 5.21L26.49 5.21Q26.49 3.89 27.55 3.21L27.55 3.21L27.55 3.21Q28.62 2.52 30.38 2.52L30.38 2.52L30.38 2.52Q32.05 2.52 33.10 3.23L33.10 3.23L33.10 3.23Q34.16 3.93 34.16 5.35L34.16 5.35L34.16 5.52L32.14 5.52L32.14 5.39L32.14 5.39Q32.14 4.86 31.66 4.55L31.66 4.55L31.66 4.55Q31.18 4.24 30.35 4.24L30.35 4.24L30.35 4.24Q29.47 4.24 29.00 4.48L29.00 4.48L29.00 4.48Q28.53 4.72 28.53 5.14L28.53 5.14L28.53 5.14Q28.53 5.46 28.81 5.69L28.81 5.69L28.81 5.69Q29.09 5.92 29.51 6.07L29.51 6.07L29.51 6.07Q29.93 6.22 30.70 6.43L30.70 6.43L30.70 6.43Q31.85 6.73 32.59 7.04L32.59 7.04L32.59 7.04Q33.32 7.34 33.85 7.92L33.85 7.92L33.85 7.92Q34.38 8.51 34.38 9.46L34.38 9.46L34.38 9.46Q34.38 11.00 33.28 11.73L33.28 11.73L33.28 11.73Q32.19 12.46 30.28 12.46L30.28 12.46ZM35.99 12.29L35.99 2.17L37.91 2.17L37.91 5.78L38.01 5.78L38.01 5.78Q38.85 4.76 40.17 4.76L40.17 4.76L40.17 4.76Q41.30 4.76 41.95 5.38L41.95 5.38L41.95 5.38Q42.60 5.99 42.60 7.35L42.60 7.35L42.60 12.29L40.68 12.29L40.68 7.76L40.68 7.76Q40.68 7.07 40.36 6.76L40.36 6.76L40.36 6.76Q40.04 6.45 39.41 6.45L39.41 6.45L39.41 6.45Q38.77 6.45 38.34 6.91L38.34 6.91L38.34 6.91Q37.91 7.36 37.91 8.04L37.91 8.04L37.91 12.29L35.99 12.29ZM45.67 14.84L45.67 14.84Q45.30 14.84 45.01 14.80L45.01 14.80L45.01 14.80Q44.72 14.76 44.55 14.71L44.55 14.71L44.55 14.71Q44.39 14.67 44.35 14.66L44.35 14.66L44.35 13.31L45.26 13.31L45.26 13.31Q45.75 13.31 46.06 13.08L46.06 13.08L46.06 13.08Q46.37 12.84 46.56 12.29L46.56 12.29L43.68 4.93L45.68 4.93L47.07 8.39L47.07 8.39Q47.21 8.75 47.38 9.41L47.38 9.41L47.38 9.41Q47.54 10.08 47.59 10.30L47.59 10.30L47.66 10.30L47.66 10.30Q47.71 10.09 47.86 9.53L47.86 9.53L47.86 9.53Q48.01 8.97 48.17 8.40L48.17 8.40L49.27 4.93L51.21 4.93L48.73 11.91L48.73 11.91Q48.40 12.84 48.03 13.46L48.03 13.46L48.03 13.46Q47.67 14.08 47.09 14.46L47.09 14.46L47.09 14.46Q46.51 14.84 45.67 14.84L45.67 14.84ZM54.60 12.29L54.60 4.44L51.63 4.44L51.63 2.69L59.60 2.69L59.60 4.44L56.63 4.44L56.63 12.29L54.60 12.29ZM64.16 12.46L64.16 12.46Q62.27 12.46 61.35 11.52L61.35 11.52L61.35 11.52Q60.42 10.58 60.42 8.61L60.42 8.61L60.42 8.61Q60.42 6.64 61.35 5.70L61.35 5.70L61.35 5.70Q62.27 4.76 64.16 4.76L64.16 4.76L64.16 4.76Q66.05 4.76 66.98 5.70L66.98 5.70L66.98 5.70Q67.91 6.64 67.91 8.61L67.91 8.61L67.91 8.61Q67.91 10.58 66.98 11.52L66.98 11.52L66.98 11.52Q66.05 12.46 64.16 12.46L64.16 12.46ZM64.16 10.89L64.16 10.89Q65.10 10.89 65.52 10.35L65.52 10.35L65.52 10.35Q65.94 9.81 65.94 8.72L65.94 8.72L65.94 8.50L65.94 8.50Q65.94 7.41 65.52 6.87L65.52 6.87L65.52 6.87Q65.10 6.33 64.16 6.33L64.16 6.33L64.16 6.33Q63.22 6.33 62.81 6.87L62.81 6.87L62.81 6.87Q62.40 7.41 62.40 8.50L62.40 8.50L62.40 8.72L62.40 8.72Q62.40 9.81 62.81 10.35L62.81 10.35L62.81 10.35Q63.22 10.89 64.16 10.89L64.16 10.89ZM68.47 12.29L72.23 2.69L74.77 2.69L78.53 12.29L76.31 12.29L75.63 10.46L71.26 10.46L70.57 12.29L68.47 12.29ZM71.89 8.76L74.98 8.76L74.07 6.33L74.07 6.33Q73.96 6.03 73.75 5.35L73.75 5.35L73.75 5.35Q73.54 4.66 73.47 4.44L73.47 4.44L73.40 4.44L73.40 4.44Q73.33 4.66 73.12 5.35L73.12 5.35L73.12 5.35Q72.91 6.03 72.80 6.33L72.80 6.33L71.89 8.76ZM82.49 12.46L82.49 12.46Q80.95 12.46 80.07 11.82L80.07 11.82L80.07 11.82Q79.20 11.19 79.20 10.12L79.20 10.12L79.21 9.95L81.07 9.95L81.07 10.05L81.07 10.05Q81.09 10.54 81.52 10.76L81.52 10.76L81.52 10.76Q81.94 10.98 82.56 10.98L82.56 10.98L82.56 10.98Q83.13 10.98 83.54 10.82L83.54 10.82L83.54 10.82Q83.94 10.67 83.94 10.32L83.94 10.32L83.94 10.32Q83.94 9.93 83.53 9.73L83.53 9.73L83.53 9.73Q83.12 9.53 82.24 9.34L82.24 9.34L82.24 9.34Q81.33 9.13 80.75 8.91L80.75 8.91L80.75 8.91Q80.18 8.69 79.76 8.23L79.76 8.23L79.76 8.23Q79.34 7.77 79.34 7L79.34 7L79.34 7Q79.34 5.92 80.24 5.34L80.24 5.34L80.24 5.34Q81.14 4.76 82.57 4.76L82.57 4.76L82.57 4.76Q83.90 4.76 84.77 5.30L84.77 5.30L84.77 5.30Q85.64 5.84 85.64 6.76L85.64 6.76L85.62 7.08L83.76 7.08L83.76 7.06L83.76 7.06Q83.75 6.65 83.41 6.45L83.41 6.45L83.41 6.45Q83.08 6.24 82.50 6.24L82.50 6.24L82.50 6.24Q81.93 6.24 81.59 6.40L81.59 6.40L81.59 6.40Q81.26 6.55 81.26 6.83L81.26 6.83L81.26 6.83Q81.26 7.18 81.64 7.35L81.64 7.35L81.64 7.35Q82.03 7.52 82.88 7.69L82.88 7.69L82.88 7.69Q83.82 7.90 84.41 8.11L84.41 8.11L84.41 8.11Q84.99 8.32 85.43 8.79L85.43 8.79L85.43 8.79Q85.86 9.27 85.86 10.08L85.86 10.08L85.86 10.08Q85.86 12.46 82.49 12.46L82.49 12.46ZM87.33 12.29L87.33 2.17L89.25 2.17L89.25 7.85L91.69 4.93L93.90 4.93L91.46 7.76L94.04 12.29L91.84 12.29L90.23 9.17L89.25 10.12L89.25 12.29L87.33 12.29Z"></path></g> <!----> <g data-v-5f19e91b="" id="dbe6b06d-4681-9956-f88d-3915c1feda5c" transform="matrix(0.9333333333333333,0,0,0.9333333333333333,-3.2200021425882994,-6.673333326975502)" stroke="none" fill="black"><switch><g><path d="M88.7 16.4C83.2 10.9 76 7.9 68.3 7.9c-6.4 0-12.5 2.1-17.6 5.9-5.1-3.9-11.1-5.9-17.6-5.9-7.7 0-15 3-20.5 8.5S4.1 29.1 4.1 36.9c0 7.7 3 14.9 8.4 20.3l9.1 9.1L45 89.6c1.5 1.5 3.5 2.3 5.7 2.3 2.1 0 4.1-.8 5.7-2.3l32.4-32.4.1-.1c5.4-5.4 8.4-12.7 8.4-20.3-.1-7.7-3.1-15-8.6-20.4zM48.6 81.8l16-16c.5-.5.7-1.1.7-1.8s-.3-1.3-.7-1.8c-.5-.5-1.1-.7-1.8-.7s-1.3.3-1.8.7l-16 16c-1.1 1.1-3.1 1.1-4.3 0-.6-.6-.9-1.3-.9-2.1s.3-1.6.9-2.1l16-16c.5-.5.7-1.1.7-1.8s-.3-1.3-.7-1.8c-.5-.5-1.1-.7-1.8-.7s-1.3.3-1.8.7l-16 16c-1.1 1.1-3.1 1.1-4.2 0-1.2-1.2-1.2-3.1 0-4.3l16-16c1-1 1-2.6 0-3.5-.9-.9-2.6-.9-3.5 0l-16 16c-1.1 1.1-3.1 1.1-4.3 0-1.2-1.2-1.2-3.1 0-4.2l27.2-27.2c1-1 1-2.6 0-3.5-.9-.9-2.6-.9-3.5 0L34.4 42.3c-1-.3-1.8-.8-2.4-1.3-.8-.8-.6-1-.5-1.1 2.8-2.9 19.7-19.9 19.8-20 4.5-4.5 10.5-7 16.9-7 6.4 0 12.4 2.5 16.9 7 4.5 4.5 7 10.5 7 16.9 0 6.4-2.5 12.4-7 16.9L52.8 86.1c-1.1 1.1-3.1 1.1-4.3 0-.6-.6-.9-1.3-.9-2.1.1-.8.4-1.6 1-2.2zM33.1 12.9c5 0 9.7 1.5 13.8 4.4l-19 19c-2.3 2.3-2.1 5.6.5 8.2.6.6 1.4 1.2 2.2 1.6L21.7 55c-.7.7-1.3 1.6-1.7 2.5l-3.7-3.7-.1-.1c-4.5-4.5-7-10.5-7-16.9 0-6.4 2.5-12.4 7-16.9 4.5-4.5 10.5-7 16.9-7z"></path></g></switch></g></svg>