<?xml version="1.0" ?><svg height="512" id="svg2" version="1.1" width="512" xmlns="http://www.w3.org/2000/svg" xmlns:cc="http://creativecommons.org/ns#" xmlns:dc="http://purl.org/dc/elements/1.1/" xmlns:inkscape="http://www.inkscape.org/namespaces/inkscape" xmlns:rdf="http://www.w3.org/1999/02/22-rdf-syntax-ns#" xmlns:sodipodi="http://sodipodi.sourceforge.net/DTD/sodipodi-0.dtd" xmlns:svg="http://www.w3.org/2000/svg" xmlns:xlink="http://www.w3.org/1999/xlink"><defs id="defs4"><linearGradient id="linearGradient3932"><stop id="stop3934" offset="0" style="stop-color:#fcd116;stop-opacity:1;"/><stop id="stop3936" offset="1" style="stop-color:#fcd116;stop-opacity:0;"/></linearGradient><radialGradient cx="340.22913" cy="79.298355" fx="340.22913" fy="79.298355" gradientUnits="userSpaceOnUse" id="radialGradient3938" r="13.958117" xlink:href="#linearGradient3932"/><clipPath clipPathUnits="userSpaceOnUse" id="clipPath3943"><path d="m 457.14285,229.14285 a 205.71428,205.71428 0 1 1 -411.428556,-1e-5 l 205.714276,1e-5 z" id="path3945" style="fill:#4bb7c0;fill-opacity:1;stroke:none" transform="matrix(-0.44444444,0,0,-0.44444444,415.0973,254.90678)"/></clipPath><clipPath clipPathUnits="userSpaceOnUse" id="clipPath4027"><path d="m 457.14285,229.14285 a 205.71428,205.71428 0 1 1 -411.428556,0 205.71428,205.71428 0 1 1 411.428556,0 z" id="path4029" style="fill:#e5b731;fill-opacity:1;stroke:none" transform="matrix(1.1666667,0,0,1.1666667,-33.333335,525.02884)"/></clipPath><clipPath clipPathUnits="userSpaceOnUse" id="clipPath4092"><path d="M 453.4165,190.16541 A 205.71428,205.71428 0 1 1 48.531054,195.21703 L 251.42857,229.14285 z" id="path4094" style="fill:#4bb7c0;fill-opacity:1;stroke:none" transform="matrix(-1.1666667,0,0,-1.1666667,553.33335,519.33332)"/></clipPath><clipPath clipPathUnits="userSpaceOnUse" id="clipPath4098"><path d="M 453.4165,190.16541 A 205.71428,205.71428 0 1 1 48.531054,195.21703 L 251.42857,229.14285 z" id="path4100" style="fill:#4bb7c0;fill-opacity:1;stroke:none" transform="matrix(-1.1666213,-0.00506212,0.01298341,-1.1666826,541.51887,1062.1108)"/></clipPath><clipPath clipPathUnits="userSpaceOnUse" id="clipPath5473"><path d="m 457.14285,229.14285 a 205.71428,205.71428 0 1 1 -411.428556,0 205.71428,205.71428 0 1 1 411.428556,0 z" id="path5475" style="fill:#456196;fill-opacity:1;stroke:none" transform="matrix(1.1666667,0,0,1.1666667,-33.333335,525.02884)"/></clipPath><clipPath clipPathUnits="userSpaceOnUse" id="clipPath5577"><path d="m 288.31979,845.36168 -52.95863,0.61436 -127.9479,114.54242 c 39.25433,44.34574 93.91532,71.84374 154.3662,71.84374 60.88183,0 115.87064,-27.9094 155.1831,-72.81249 z" id="path5579" style="fill:#3c517d;fill-opacity:1;stroke:none"/></clipPath><radialGradient cx="340.22913" cy="79.298355" fx="340.22913" fy="79.298355" gradientUnits="userSpaceOnUse" id="radialGradient6281-1" r="13.958117" xlink:href="#linearGradient3932-7-8"/><linearGradient id="linearGradient3932-7-8"><stop id="stop3934-1-0" offset="0" style="stop-color:#ffffff;stop-opacity:1;"/><stop id="stop3936-41-1" offset="1" style="stop-color:#ffffff;stop-opacity:0;"/></linearGradient><clipPath clipPathUnits="userSpaceOnUse" id="clipPath3943-4-5"><path d="m 457.14285,229.14285 a 205.71428,205.71428 0 1 1 -411.428556,-1e-5 l 205.714276,1e-5 z" id="path3945-4-9" style="fill:#4bb7c0;fill-opacity:1;stroke:none" transform="matrix(-0.44444444,0,0,-0.44444444,415.0973,254.90678)"/></clipPath><clipPath clipPathUnits="userSpaceOnUse" id="clipPath6012-8"><path d="m 457.14285,229.14285 a 205.71428,205.71428 0 1 1 -411.428556,0 205.71428,205.71428 0 1 1 411.428556,0 z" id="path6014-1" style="fill:#456196;fill-opacity:1;stroke:none" transform="matrix(1.1666667,0,0,0.93144209,-33.64177,570.63291)"/></clipPath><clipPath clipPathUnits="userSpaceOnUse" id="clipPath77857"><path d="m -26.069721,50.047192 a 38.553814,38.553814 0 1 1 -77.107629,0 38.553814,38.553814 0 1 1 77.107629,0 z" id="path77859" style="fill:#4bb7c0;fill-opacity:1;stroke:none" transform="translate(-667.02758,-24.473155)"/></clipPath><clipPath clipPathUnits="userSpaceOnUse" id="clipPath4452-9"><path d="m 762.4482,171.48917 a 123.37349,123.37349 0 1 1 -246.74698,0 123.37349,123.37349 0 1 1 246.74698,0 z" id="path4454-7" style="fill:#9adbb6;fill-opacity:1;stroke:none" transform="matrix(1.9453126,0,0,1.9453126,-1025.4073,-22.12052)"/></clipPath><clipPath clipPathUnits="userSpaceOnUse" id="clipPath4827"><path d="m 762.4482,171.48917 a 123.37349,123.37349 0 1 1 -246.74698,0 123.37349,123.37349 0 1 1 246.74698,0 z" id="path4829" style="fill:#9adbb6;fill-opacity:1;stroke:none" transform="matrix(1.9453126,0,0,1.9453126,-1603.4507,-645.73497)"/></clipPath><clipPath clipPathUnits="userSpaceOnUse" id="clipPath4579-2"><path d="m 762.4482,171.48917 a 123.37349,123.37349 0 1 1 -246.74698,0 123.37349,123.37349 0 1 1 246.74698,0 z" id="path4581-4" style="fill:#9adbb6;fill-opacity:1;stroke:none" transform="matrix(1.9453126,0,0,1.9453126,-985.92774,461.48985)"/></clipPath><clipPath clipPathUnits="userSpaceOnUse" id="clipPath3661"><path d="m 762.4482,171.48917 a 123.37349,123.37349 0 1 1 -246.74698,0 123.37349,123.37349 0 1 1 246.74698,0 z" id="path3663" style="fill:#9adbb6;fill-opacity:1;stroke:none" transform="matrix(1.9453126,0,0,1.9453126,-985.92774,461.48985)"/></clipPath><radialGradient cx="340.22913" cy="79.298355" fx="340.22913" fy="79.298355" gradientUnits="userSpaceOnUse" id="radialGradient3943" r="13.958117" xlink:href="#linearGradient3932-7-8"/><radialGradient cx="-585.61359" cy="611.84735" fx="-585.61359" fy="611.84735" gradientTransform="matrix(1,0,0,0.99926513,605.76384,6.6183005)" gradientUnits="userSpaceOnUse" id="radialGradient4574" r="35.890881" xlink:href="#linearGradient3932-7-8"/></defs><g id="layer1" transform="translate(0,-540.36218)"><g id="g4292"><path d="m 256.01445,1052.3622 c -96.75099,0 -179.20037,-61.25421 -210.64124,-147.11001 36.99992,79.244 117.38422,134.14221 210.61234,134.14221 93.2302,0 173.64256,-54.89513 210.64124,-134.14221 -31.43313,85.8558 -113.86125,147.11001 -210.61234,147.11001 z" id="path4249" style="opacity:1;fill:#d9d9d9;fill-opacity:1;stroke:none"/><g id="g4635" transform="matrix(1.0057673,0,0,1.0057673,364.57439,-10.326465)"><path d="M 141.22611,796.70877 A 249.1779,249.1779 0 0 1 -107.9518,1045.8867 249.1779,249.1779 0 0 1 -357.1297,796.70877 249.1779,249.1779 0 0 1 -107.9518,547.53087 249.1779,249.1779 0 0 1 141.22611,796.70877 Z" id="path4251" style="fill:#f8f6de;fill-opacity:1;stroke:none"/><path d="M 127.14093,797.03256 A 235.09273,234.91997 0 0 1 -107.9518,1031.9526 235.09273,234.91997 0 0 1 -343.04452,797.03256 235.09273,234.91997 0 0 1 -107.9518,562.11259 235.09273,234.91997 0 0 1 127.14093,797.03256 Z" id="path4255" style="fill:#3c517d;fill-opacity:1;stroke:none"/><path d="m -338.63495,840.93965 a 235.09273,234.91997 0 0 1 98.9735,-238.99942 235.09273,234.91997 0 0 1 258.824436,-3.2269 235.09273,234.91997 0 0 1 104.909984,236.45751 L -107.80074,796.4285 Z" id="path4257" style="fill:#9adbb6;fill-opacity:1;stroke:none"/><path d="m -338.87288,753.76327 a 235.09273,234.91997 0 0 0 -4.17187,43.26953 235.09273,234.91997 0 0 0 13.11718,76.52149 l 443.97461,0 a 235.09273,234.91997 0 0 0 13.09375,-76.52149 235.09273,234.91997 0 0 0 -4.16992,-43.26953 l -461.84375,0 z" id="path4259" style="fill:#9adbb6;fill-opacity:1;stroke:none"/><path d="m -239.87861,879.52823 a 39.736332,23.482712 0 0 1 -39.73633,23.48271 39.736332,23.482712 0 0 1 -39.73634,-23.48271 39.736332,23.482712 0 0 1 39.73634,-23.48271 39.736332,23.482712 0 0 1 39.73633,23.48271 z" id="path4261" style="fill:#3c517d;fill-opacity:1;stroke:none"/><path d="m 106.63921,884.22476 a 39.736332,23.482712 0 0 1 -39.736334,23.48271 39.736332,23.482712 0 0 1 -39.73633,-23.48271 39.736332,23.482712 0 0 1 39.73633,-23.48271 39.736332,23.482712 0 0 1 39.736334,23.48271 z" id="path4263" style="fill:#3c517d;fill-opacity:1;stroke:none"/><path d="m -191.48329,869.20108 a 39.736332,23.482712 0 0 1 -39.73633,23.48271 39.736332,23.482712 0 0 1 -39.73633,-23.48271 39.736332,23.482712 0 0 1 39.73633,-23.48271 39.736332,23.482712 0 0 1 39.73633,23.48271 z" id="path4265" style="fill:#3c517d;fill-opacity:1;stroke:none"/><path d="M 72.251636,878.38351 A 39.736332,23.482712 0 0 1 32.515296,901.86623 39.736332,23.482712 0 0 1 -7.2210336,878.38351 39.736332,23.482712 0 0 1 32.515296,854.9008 39.736332,23.482712 0 0 1 72.251636,878.38351 Z" id="path4267" style="fill:#3c517d;fill-opacity:1;stroke:none"/><path d="m -51.274294,742.30905 a 3.55391,3.5512986 0 0 1 -3.55391,3.5513 3.55391,3.5512986 0 0 1 -3.55391,-3.5513 3.55391,3.5512986 0 0 1 3.55391,-3.5513 3.55391,3.5512986 0 0 1 3.55391,3.5513 z" id="path4269" style="fill:#ffffff;fill-opacity:1;stroke:none"/><path d="m 56.041116,618.01603 a 35.890882,35.864506 0 0 1 -35.89087,35.86451 35.890882,35.864506 0 0 1 -35.89089,-35.86451 35.890882,35.864506 0 0 1 35.89089,-35.8645 35.890882,35.864506 0 0 1 35.89087,35.8645 z" id="path4271" style="fill:url(#radialGradient4574);fill-opacity:1;stroke:none"/><path d="m -255.80773,681.78433 a 4.3348637,4.3316779 0 0 1 -4.33486,4.33168 4.3348637,4.3316779 0 0 1 -4.33487,-4.33168 4.3348637,4.3316779 0 0 1 4.33487,-4.33168 4.3348637,4.3316779 0 0 1 4.33486,4.33168 z" id="path4273" style="fill:#ffffff;fill-opacity:1;stroke:none"/><path d="m -160.44073,634.13596 a 4.3348637,4.3316779 0 0 1 -4.33486,4.33167 4.3348637,4.3316779 0 0 1 -4.33486,-4.33167 4.3348637,4.3316779 0 0 1 4.33486,-4.33168 4.3348637,4.3316779 0 0 1 4.33486,4.33168 z" id="path4275" style="fill:#ffffff;fill-opacity:1;stroke:none"/><path d="m -71.576104,655.79434 a 4.3348637,4.3316779 0 0 1 -4.33486,4.33168 4.3348637,4.3316779 0 0 1 -4.33487,-4.33168 4.3348637,4.3316779 0 0 1 4.33487,-4.33168 4.3348637,4.3316779 0 0 1 4.33486,4.33168 z" id="path4277" style="fill:#ffffff;fill-opacity:1;stroke:none"/><path d="m -73.743404,725.10117 a 4.3348637,4.3316779 0 0 1 -4.33486,4.33167 4.3348637,4.3316779 0 0 1 -4.33487,-4.33167 4.3348637,4.3316779 0 0 1 4.33487,-4.33168 4.3348637,4.3316779 0 0 1 4.33486,4.33168 z" id="path4279" style="fill:#ffffff;fill-opacity:1;stroke:none"/><path d="m -6.5530336,742.42795 a 4.3348637,4.3316779 0 0 1 -4.3348604,4.33168 4.3348637,4.3316779 0 0 1 -4.33487,-4.33168 4.3348637,4.3316779 0 0 1 4.33487,-4.33168 4.3348637,4.3316779 0 0 1 4.3348604,4.33168 z" id="path4281" style="fill:#ffffff;fill-opacity:1;stroke:none"/><path d="m 97.483586,718.60367 a 4.3348637,4.3316779 0 0 1 -4.33486,4.33168 4.3348637,4.3316779 0 0 1 -4.33487,-4.33168 4.3348637,4.3316779 0 0 1 4.33487,-4.33168 4.3348637,4.3316779 0 0 1 4.33486,4.33168 z" id="path4283" style="fill:#ffffff;fill-opacity:1;stroke:none"/><path d="m -214.62652,614.64334 a 4.3348637,4.3316779 0 0 1 -4.33486,4.33168 4.3348637,4.3316779 0 0 1 -4.33486,-4.33168 4.3348637,4.3316779 0 0 1 4.33486,-4.33168 4.3348637,4.3316779 0 0 1 4.33486,4.33168 z" id="path4285" style="fill:#ffffff;fill-opacity:1;stroke:none"/><path d="m -221.87102,714.29538 a 4.3348637,4.3316779 0 0 1 -4.33487,4.33168 4.3348637,4.3316779 0 0 1 -4.33486,-4.33168 4.3348637,4.3316779 0 0 1 4.33486,-4.33168 4.3348637,4.3316779 0 0 1 4.33487,4.33168 z" id="path4287" style="fill:#ffffff;fill-opacity:1;stroke:none"/><path d="m -303.05272,749.30594 a 4.3348637,4.3316779 0 0 1 -4.33487,4.33168 4.3348637,4.3316779 0 0 1 -4.33486,-4.33168 4.3348637,4.3316779 0 0 1 4.33486,-4.33168 4.3348637,4.3316779 0 0 1 4.33487,4.33168 z" id="path4289" style="fill:#ffffff;fill-opacity:1;stroke:none"/><path d="m -247.50731,786.02426 a 4.3348637,4.3316779 0 0 1 -4.33487,4.33168 4.3348637,4.3316779 0 0 1 -4.33486,-4.33168 4.3348637,4.3316779 0 0 1 4.33486,-4.33168 4.3348637,4.3316779 0 0 1 4.33487,4.33168 z" id="path4291" style="fill:#ffffff;fill-opacity:1;stroke:none"/><path d="m -325.27093,809.93405 a 4.3348637,4.3316779 0 0 1 -4.33486,4.33168 4.3348637,4.3316779 0 0 1 -4.33486,-4.33168 4.3348637,4.3316779 0 0 1 4.33486,-4.33168 4.3348637,4.3316779 0 0 1 4.33486,4.33168 z" id="path4293" style="fill:#ffffff;fill-opacity:1;stroke:none"/><path d="m 85.765206,838.96725 a 4.3348637,4.3316779 0 0 1 -4.33487,4.33168 4.3348637,4.3316779 0 0 1 -4.33486,-4.33168 4.3348637,4.3316779 0 0 1 4.33486,-4.33167 4.3348637,4.3316779 0 0 1 4.33487,4.33167 z" id="path4295" style="fill:#ffffff;fill-opacity:1;stroke:none"/><path d="m 61.837896,781.75485 a 4.3348637,4.3316779 0 0 1 -4.33486,4.33168 4.3348637,4.3316779 0 0 1 -4.33487,-4.33168 4.3348637,4.3316779 0 0 1 4.33487,-4.33168 4.3348637,4.3316779 0 0 1 4.33486,4.33168 z" id="path4297" style="fill:#ffffff;fill-opacity:1;stroke:none"/><path d="m 33.638006,734.78928 a 4.3348637,4.3316779 0 0 1 -4.33486,4.33167 4.3348637,4.3316779 0 0 1 -4.33487,-4.33167 4.3348637,4.3316779 0 0 1 4.33487,-4.33168 4.3348637,4.3316779 0 0 1 4.33486,4.33168 z" id="path4299" style="fill:#ffffff;fill-opacity:1;stroke:none"/><path d="m 113.11048,764.67648 a 4.3348637,4.3316779 0 0 1 -4.33486,4.33168 4.3348637,4.3316779 0 0 1 -4.33486,-4.33168 4.3348637,4.3316779 0 0 1 4.33486,-4.33168 4.3348637,4.3316779 0 0 1 4.33486,4.33168 z" id="path4301" style="fill:#ffffff;fill-opacity:1;stroke:none"/><path d="m 57.565196,683.55435 a 4.3348637,4.3316779 0 0 1 -4.33487,4.33168 4.3348637,4.3316779 0 0 1 -4.33486,-4.33168 4.3348637,4.3316779 0 0 1 4.33486,-4.33168 4.3348637,4.3316779 0 0 1 4.33487,4.33168 z" id="path4303" style="fill:#ffffff;fill-opacity:1;stroke:none"/><path d="m -14.216734,677.57687 a 4.3348637,4.3316779 0 0 1 -4.33486,4.33168 4.3348637,4.3316779 0 0 1 -4.33486,-4.33168 4.3348637,4.3316779 0 0 1 4.33486,-4.33167 4.3348637,4.3316779 0 0 1 4.33486,4.33167 z" id="path4305" style="fill:#ffffff;fill-opacity:1;stroke:none"/><path d="m -51.816584,591.33127 a 4.3348637,4.3316779 0 0 1 -4.33486,4.33168 4.3348637,4.3316779 0 0 1 -4.33487,-4.33168 4.3348637,4.3316779 0 0 1 4.33487,-4.33168 4.3348637,4.3316779 0 0 1 4.33486,4.33168 z" id="path4307" style="fill:#ffffff;fill-opacity:1;stroke:none"/><path d="m -122.74383,593.03903 a 4.3348637,4.3316779 0 0 1 -4.33486,4.33168 4.3348637,4.3316779 0 0 1 -4.33486,-4.33168 4.3348637,4.3316779 0 0 1 4.33486,-4.33168 4.3348637,4.3316779 0 0 1 4.33486,4.33168 z" id="path4309" style="fill:#ffffff;fill-opacity:1;stroke:none"/><ellipse cx="-177.49684" cy="575.96075" id="path4311" rx="4.3348637" ry="4.3316779" style="fill:#ffffff;fill-opacity:1;stroke:none"/><ellipse cx="-285.1694" cy="644.27417" id="path4313" rx="4.3348637" ry="4.3316779" style="fill:#ffffff;fill-opacity:1;stroke:none"/><path d="m -116.76201,688.67776 a 4.3348637,4.3316779 0 0 1 -4.33487,4.33168 4.3348637,4.3316779 0 0 1 -4.33486,-4.33168 4.3348637,4.3316779 0 0 1 4.33486,-4.33167 4.3348637,4.3316779 0 0 1 4.33487,4.33167 z" id="path4315" style="fill:#ffffff;fill-opacity:1;stroke:none"/><ellipse cx="-103.15138" cy="783.46259" id="path4317" rx="4.3348637" ry="4.3316779" style="fill:#ffffff;fill-opacity:1;stroke:none"/><path d="m -123.31758,739.91455 1.42885,0 c 1.34436,0 2.42664,1.08149 2.42664,2.42485 l 0,27.60602 c 0,1.34337 -1.08228,2.42485 -2.42664,2.42485 l -1.42885,0 c -1.34436,0 -2.42664,-1.08148 -2.42664,-2.42485 l 0,-27.60602 c 0,-1.34336 1.08228,-2.42485 2.42664,-2.42485 z" id="rect4321" style="fill:#3c517d;fill-opacity:1;stroke:none"/><path d="m -232.0711,881.93758 a 114.29343,118.66009 14.847228 0 1 54.55928,-113.35016 114.29343,118.66009 14.847228 0 1 121.634138,-0.64968 114.29343,118.66009 14.847228 0 1 51.6248989,112.78302" id="path4325" style="fill:#3c517d;fill-opacity:1;stroke:none"/><path d="m -230.26979,886.09622 a 112.50506,119.09427 9.5199353 0 1 53.65708,-113.86777 112.50506,119.09427 9.5199353 0 1 119.62275,-0.65264 112.50506,119.09427 9.5199353 0 1 50.7712122,113.29803" id="path4327" style="fill:#456196;fill-opacity:1;stroke:none"/><path d="m 1590.032,1723.0343 a 108.54604,72.804886 0 0 1 -58.7626,64.6961 108.54604,72.804886 0 0 1 -112.6643,-5.3519" id="path4329" style="fill:#456196;fill-opacity:1;stroke:none" transform="matrix(0.99183397,0.12753576,-0.91836187,0.39574167,0,0)"/><rect height="4.8539343" id="rect4331" style="fill:#456196;fill-opacity:1;stroke:none" width="197.86232" x="-230.07863" y="881.61908"/><path d="m -22.122884,823.83669 6.31033,-2.24003 5.6996,-0.81456 -29.10866,-2.44369 -0.61065,6.31285 15.26672,0.81455 z" id="path4333" style="fill:#3c517d;fill-opacity:1;stroke:none"/><path d="m 6096.4282,221.42859 -24.1978,-14.8623 -18.2118,20.37701 6.6573,-27.60616 -25.0074,-11.02366 28.3122,-2.19925 2.7564,-27.19001 10.8406,26.24695 26.711,-5.78069 -21.6124,18.42076 z" id="path4335" style="fill:#456196;fill-opacity:1;stroke:none" transform="matrix(0.35480932,0.01307418,-0.01306457,0.35454859,-2274.7282,587.96595)"/><path d="m 1561.2959,1692.5615 a 108.54604,72.804893 0 0 1 -58.7626,64.6961 108.54604,72.804893 0 0 1 -112.6643,-5.3518" id="path4337" style="fill:none;stroke:#808080;stroke-width:2.05876637;stroke-miterlimit:4;stroke-dasharray:none;stroke-opacity:0.13333333" transform="matrix(0.99183397,0.12753576,-0.91836188,0.39574165,0,0)"/><path d="m -11.712734,848.92306 c -23.73736,10.22894 -67.08839,16.93864 -112.584516,17.26729 -45.49614,0.32865 -85.26764,-5.81337 -102.90333,-15.87731 l -2.63858,0.63519 c 17.9574,10.24754 58.17117,16.44905 104.4014,16.11511 46.230296,-0.33398 91.001386,-7.18192 115.8094664,-17.87225 l -2.0844404,-0.26803 z" id="path4339" style="color:#000000;font-style:normal;font-variant:normal;font-weight:normal;font-stretch:normal;font-size:medium;line-height:normal;font-family:sans-serif;text-indent:0;text-align:start;text-decoration:none;text-decoration-line:none;text-decoration-style:solid;text-decoration-color:#000000;letter-spacing:normal;word-spacing:normal;text-transform:none;direction:ltr;block-progression:tb;writing-mode:lr-tb;baseline-shift:baseline;text-anchor:start;white-space:normal;clip-rule:nonzero;display:inline;overflow:visible;visibility:visible;opacity:1;isolation:auto;mix-blend-mode:normal;color-interpolation:sRGB;color-interpolation-filters:linearRGB;solid-color:#000000;solid-opacity:1;fill:#3c517d;fill-opacity:1;fill-rule:nonzero;stroke:none;stroke-width:2.10117435;stroke-linecap:butt;stroke-linejoin:miter;stroke-miterlimit:4;stroke-dasharray:none;stroke-dashoffset:0;stroke-opacity:1;color-rendering:auto;image-rendering:auto;shape-rendering:auto;text-rendering:auto;enable-background:accumulate"/><path d="m -11.332464,829.18445 c -23.08929,9.08705 -65.29219,15.05681 -109.618046,15.34924 -44.32586,0.29243 -83.08149,-5.17461 -100.26195,-14.12882 l -2.76075,0.61471 c 17.51337,9.12768 56.7206,14.65003 101.80389,14.35259 45.083386,-0.29742 88.775806,-6.39715 113.0055564,-15.93303 l -2.1687004,-0.25469 z" id="path4341" style="color:#000000;font-style:normal;font-variant:normal;font-weight:normal;font-stretch:normal;font-size:medium;line-height:normal;font-family:sans-serif;text-indent:0;text-align:start;text-decoration:none;text-decoration-line:none;text-decoration-style:solid;text-decoration-color:#000000;letter-spacing:normal;word-spacing:normal;text-transform:none;direction:ltr;block-progression:tb;writing-mode:lr-tb;baseline-shift:baseline;text-anchor:start;white-space:normal;clip-rule:nonzero;display:inline;overflow:visible;visibility:visible;opacity:1;isolation:auto;mix-blend-mode:normal;color-interpolation:sRGB;color-interpolation-filters:linearRGB;solid-color:#000000;solid-opacity:1;fill:#3c517d;fill-opacity:1;fill-rule:nonzero;stroke:none;stroke-width:2.18274832;stroke-linecap:butt;stroke-linejoin:miter;stroke-miterlimit:4;stroke-dasharray:none;stroke-dashoffset:0;stroke-opacity:1;color-rendering:auto;image-rendering:auto;shape-rendering:auto;text-rendering:auto;enable-background:accumulate"/><path d="m -22.072294,808.64277 c -20.91571,9.96533 -59.11475,16.50327 -99.219696,16.82361 -40.10487,0.32029 -75.16875,-5.66743 -90.71355,-15.47551 l -2.50995,0.65757 c 15.85524,10.00389 51.35365,16.05647 92.16942,15.73046 40.815666,-0.32596 80.358506,-7.01296 102.269336,-17.45241 l -1.99556,-0.28372 z" id="path4343" style="color:#000000;font-style:normal;font-variant:normal;font-weight:normal;font-stretch:normal;font-size:medium;line-height:normal;font-family:sans-serif;text-indent:0;text-align:start;text-decoration:none;text-decoration-line:none;text-decoration-style:solid;text-decoration-color:#000000;letter-spacing:normal;word-spacing:normal;text-transform:none;direction:ltr;block-progression:tb;writing-mode:lr-tb;baseline-shift:baseline;text-anchor:start;white-space:normal;clip-rule:nonzero;display:inline;overflow:visible;visibility:visible;opacity:1;isolation:auto;mix-blend-mode:normal;color-interpolation:sRGB;color-interpolation-filters:linearRGB;solid-color:#000000;solid-opacity:1;fill:#3c517d;fill-opacity:1;fill-rule:nonzero;stroke:none;stroke-width:2.0172627;stroke-linecap:butt;stroke-linejoin:miter;stroke-miterlimit:4;stroke-dasharray:none;stroke-dashoffset:0;stroke-opacity:1;color-rendering:auto;image-rendering:auto;shape-rendering:auto;text-rendering:auto;enable-background:accumulate"/><path d="m -33.187894,790.69287 c -18.60857,10.42852 -52.56938,17.26295 -88.218776,17.59786 -35.6494,0.33491 -66.81873,-5.92496 -80.63648,-16.17978 l -2.31494,0.68898 c 14.1121,10.47321 45.70673,16.80954 82.03513,16.46827 36.328486,-0.34132 71.518536,-7.34311 91.003646,-18.26285 l -1.86858,-0.31248 z" id="path4345" style="color:#000000;font-style:normal;font-variant:normal;font-weight:normal;font-stretch:normal;font-size:medium;line-height:normal;font-family:sans-serif;text-indent:0;text-align:start;text-decoration:none;text-decoration-line:none;text-decoration-style:solid;text-decoration-color:#000000;letter-spacing:normal;word-spacing:normal;text-transform:none;direction:ltr;block-progression:tb;writing-mode:lr-tb;baseline-shift:baseline;text-anchor:start;white-space:normal;clip-rule:nonzero;display:inline;overflow:visible;visibility:visible;opacity:1;isolation:auto;mix-blend-mode:normal;color-interpolation:sRGB;color-interpolation-filters:linearRGB;solid-color:#000000;solid-opacity:1;fill:#3c517d;fill-opacity:1;fill-rule:nonzero;stroke:none;stroke-width:1.8957516;stroke-linecap:butt;stroke-linejoin:miter;stroke-miterlimit:4;stroke-dasharray:none;stroke-dashoffset:0;stroke-opacity:1;color-rendering:auto;image-rendering:auto;shape-rendering:auto;text-rendering:auto;enable-background:accumulate"/><path d="m -52.140654,772.96037 c -14.01122,5.82466 -39.71595,9.67928 -66.856096,9.8684 -27.14015,0.18913 -50.90672,-3.35312 -61.41928,-9.14043 l -2.68713,0.62745 c 10.83858,5.96681 35.05017,9.56736 62.93341,9.37307 27.883306,-0.19433 55.036276,-4.18474 70.145686,-10.46594 l -2.11659,-0.26255 z" id="path4347" style="color:#000000;font-style:normal;font-variant:normal;font-weight:normal;font-stretch:normal;font-size:medium;line-height:normal;font-family:sans-serif;text-indent:0;text-align:start;text-decoration:none;text-decoration-line:none;text-decoration-style:solid;text-decoration-color:#000000;letter-spacing:normal;word-spacing:normal;text-transform:none;direction:ltr;block-progression:tb;writing-mode:lr-tb;baseline-shift:baseline;text-anchor:start;white-space:normal;clip-rule:nonzero;display:inline;overflow:visible;visibility:visible;opacity:1;isolation:auto;mix-blend-mode:normal;color-interpolation:sRGB;color-interpolation-filters:linearRGB;solid-color:#000000;solid-opacity:1;fill:#3c517d;fill-opacity:1;fill-rule:nonzero;stroke:none;stroke-width:2.13282752;stroke-linecap:butt;stroke-linejoin:miter;stroke-miterlimit:4;stroke-dasharray:none;stroke-dashoffset:0;stroke-opacity:1;color-rendering:auto;image-rendering:auto;shape-rendering:auto;text-rendering:auto;enable-background:accumulate"/><path d="m -196.38585,896.49458 c 0.21642,-18.41228 8.91553,-48.88395 22.76853,-79.12522 13.85307,-30.24136 30.11345,-54.4352 42.58147,-63.35852 l 0.48852,-2.60817 c -12.76761,9.13776 -29.25585,33.68519 -43.40126,64.5648 -14.14547,30.87968 -23.3161,62.67915 -23.54639,82.27063 z" id="path4349" style="color:#000000;font-style:normal;font-variant:normal;font-weight:normal;font-stretch:normal;font-size:medium;line-height:normal;font-family:sans-serif;text-indent:0;text-align:start;text-decoration:none;text-decoration-line:none;text-decoration-style:solid;text-decoration-color:#000000;letter-spacing:normal;word-spacing:normal;text-transform:none;direction:ltr;block-progression:tb;writing-mode:lr-tb;baseline-shift:baseline;text-anchor:start;white-space:normal;clip-rule:nonzero;display:inline;overflow:visible;visibility:visible;opacity:1;isolation:auto;mix-blend-mode:normal;color-interpolation:sRGB;color-interpolation-filters:linearRGB;solid-color:#000000;solid-opacity:1;fill:#3c517d;fill-opacity:1;fill-rule:nonzero;stroke:none;stroke-width:2.06668139;stroke-linecap:butt;stroke-linejoin:miter;stroke-miterlimit:4;stroke-dasharray:none;stroke-dashoffset:0;stroke-opacity:1;color-rendering:auto;image-rendering:auto;shape-rendering:auto;text-rendering:auto;enable-background:accumulate"/><path d="m -92.682594,754.45747 c 13.69424,12.32149 30.85022,38.97314 44.42841,69.33838 13.57819,30.36524 21.169,59.13375 19.64144,74.38224 l 1.63747,2.09046 c 1.56426,-15.61511 -6.1423,-44.78963 -20.00726,-75.79625 -13.86501,-31.00658 -31.70743,-58.88882 -46.27798,-71.99877 l 0.57792,1.98394 z" id="path4351" style="color:#000000;font-style:normal;font-variant:normal;font-weight:normal;font-stretch:normal;font-size:medium;line-height:normal;font-family:sans-serif;text-indent:0;text-align:start;text-decoration:none;text-decoration-line:none;text-decoration-style:solid;text-decoration-color:#000000;letter-spacing:normal;word-spacing:normal;text-transform:none;direction:ltr;block-progression:tb;writing-mode:lr-tb;baseline-shift:baseline;text-anchor:start;white-space:normal;clip-rule:nonzero;display:inline;overflow:visible;visibility:visible;opacity:1;isolation:auto;mix-blend-mode:normal;color-interpolation:sRGB;color-interpolation-filters:linearRGB;solid-color:#000000;solid-opacity:1;fill:#3c517d;fill-opacity:1;fill-rule:nonzero;stroke:none;stroke-width:2.06694174;stroke-linecap:butt;stroke-linejoin:miter;stroke-miterlimit:4;stroke-dasharray:none;stroke-dashoffset:0;stroke-opacity:1;color-rendering:auto;image-rendering:auto;shape-rendering:auto;text-rendering:auto;enable-background:accumulate"/><path d="m -113.25413,900.44184 c -5.19422,-15.67891 -7.86465,-44.04826 -6.86124,-74.54513 1.00339,-30.49677 5.54424,-58.15593 11.85698,-72.23315 l -0.5231,-2.73691 c -6.46966,14.42719 -11.07913,42.50991 -12.10702,73.75122 -1.02792,31.24122 1.70309,61.09884 7.28333,77.94297 l 0.35105,-2.179 z" id="path4353" style="color:#000000;font-style:normal;font-variant:normal;font-weight:normal;font-stretch:normal;font-size:medium;line-height:normal;font-family:sans-serif;text-indent:0;text-align:start;text-decoration:none;text-decoration-line:none;text-decoration-style:solid;text-decoration-color:#000000;letter-spacing:normal;word-spacing:normal;text-transform:none;direction:ltr;block-progression:tb;writing-mode:lr-tb;baseline-shift:baseline;text-anchor:start;white-space:normal;clip-rule:nonzero;display:inline;overflow:visible;visibility:visible;opacity:1;isolation:auto;mix-blend-mode:normal;color-interpolation:sRGB;color-interpolation-filters:linearRGB;solid-color:#000000;solid-opacity:1;fill:#3c517d;fill-opacity:1;fill-rule:nonzero;stroke:none;stroke-width:2.20813179;stroke-linecap:butt;stroke-linejoin:miter;stroke-miterlimit:4;stroke-dasharray:none;stroke-dashoffset:0;stroke-opacity:1;color-rendering:auto;image-rendering:auto;shape-rendering:auto;text-rendering:auto;enable-background:accumulate"/><path d="m -79.012179,900.04443 a 39.335391,73.328836 0.80177417 0 1 18.733913,-70.20926 39.335391,73.328836 0.80177417 0 1 41.765288,-0.40241 39.335391,73.328836 0.80177417 0 1 17.72634433,69.85797" id="path4357" style="fill:#3c517d;fill-opacity:1;stroke:none"/><path d="m -50.963021,900.18908 a 39.830236,71.316568 0.86411529 0 1 18.969754,-68.28203 39.830236,71.316568 0.86411529 0 1 42.291058,-0.39137 39.830236,71.316568 0.86411529 0 1 17.949495,67.94037" id="path4359" style="fill:#456196;fill-opacity:1;stroke:none"/><path d="m -35.060723,899.69841 a 26.701678,47.80971 0.86411046 0 1 12.717076,-45.77539 26.701678,47.80971 0.86411046 0 1 28.3513824,-0.26236 26.701678,47.80971 0.86411046 0 1 12.0331156,45.54635" id="path4361" style="fill:#3c517d;fill-opacity:1;stroke:none"/><path d="M -203.62367,900.1965 A 39.736332,23.482712 0 0 1 -243.36,923.67921 39.736332,23.482712 0 0 1 -283.09633,900.1965 39.736332,23.482712 0 0 1 -243.36,876.71379 39.736332,23.482712 0 0 1 -203.62367,900.1965 Z" id="path4365" style="fill:#3c517d;fill-opacity:1;stroke:none"/><path d="m -138.36427,917.10318 a 39.736332,23.482712 0 0 1 -39.73633,23.48271 39.736332,23.482712 0 0 1 -39.73633,-23.48271 39.736332,23.482712 0 0 1 39.73633,-23.48271 39.736332,23.482712 0 0 1 39.73633,23.48271 z" id="path4367" style="fill:#3c517d;fill-opacity:1;stroke:none"/><path d="M 45.329086,905.02695 A 39.736332,23.482712 0 0 1 5.5927564,928.50966 39.736332,23.482712 0 0 1 -34.143574,905.02695 39.736332,23.482712 0 0 1 5.5927564,881.54423 39.736332,23.482712 0 0 1 45.329086,905.02695 Z" id="path4369" style="fill:#3c517d;fill-opacity:1;stroke:none"/><path d="M -9.6183636,923.465 A 39.736332,23.482712 0 0 1 -49.354694,946.94771 39.736332,23.482712 0 0 1 -89.091024,923.465 39.736332,23.482712 0 0 1 -49.354694,899.98228 39.736332,23.482712 0 0 1 -9.6183636,923.465 Z" id="path4371" style="fill:#3c517d;fill-opacity:1;stroke:none"/><path d="M -67.727374,923.465 A 39.736332,23.482712 0 0 1 -107.4637,946.94771 39.736332,23.482712 0 0 1 -147.20003,923.465 39.736332,23.482712 0 0 1 -107.4637,899.98228 39.736332,23.482712 0 0 1 -67.727374,923.465 Z" id="path4373" style="fill:#3c517d;fill-opacity:1;stroke:none"/><path d="m -107.80784,561.46498 c -98.52201,0 -185.79639,60.94553 -217.81278,146.80114 37.6772,-79.24389 122.84865,-133.83369 217.78328,-133.83369 94.936886,0 179.982626,54.2012 217.6586,133.44813 C 77.812716,622.02496 -9.2857036,561.46498 -107.80784,561.46498 Z" id="path4395" style="opacity:0.15;fill:#3b3c3d;fill-opacity:1;stroke:none"/></g></g></g></svg>