<svg xmlns="http://www.w3.org/2000/svg" viewBox="0 0 300 300"><linearGradient gradientTransform="rotate(25)" id="a" x1="0%" y1="0%" y2="0%"><stop offset="0%" stop-color="#f00079"/><stop offset="100%" stop-color="#f2a041"/></linearGradient><path fill="url(#a)" class="logo-background-square" d="M0 0h300v300H0z"/><path d="M40.237 195.889v-19.625h-7.425v-4.375h19.925v4.375h-7.425v19.625h-5.075zm23.9.425q-4.725 0-7.025-2.35-2.3-2.35-2.3-7.275 0-4.925 2.3-7.275 2.3-2.35 7.025-2.35 4.725 0 7.05 2.35 2.35 2.35 2.35 7.275 0 4.925-2.35 7.275-2.325 2.35-7.05 2.35zm0-3.925q2.35 0 3.4-1.35 1.05-1.35 1.05-4.075v-.55q0-2.725-1.05-4.075t-3.4-1.35q-2.325 0-3.375 1.35-1.025 1.35-1.025 4.075v.55q0 2.725 1.025 4.075 1.05 1.35 3.375 1.35zm21.4 3.925q-4.725 0-7.05-2.35-2.3-2.35-2.3-7.275 0-4.925 2.3-7.275 2.325-2.35 7.05-2.35t7.05 2.35q2.325 2.35 2.325 7.275 0 4.925-2.325 7.275-2.325 2.35-7.05 2.35zm0-3.925q2.35 0 3.4-1.35 1.05-1.35 1.05-4.075v-.55q0-2.725-1.05-4.075t-3.4-1.35q-2.35 0-3.375 1.35-1.05 1.35-1.05 4.075v.55q0 2.725 1.05 4.075 1.025 1.35 3.375 1.35zm22.25 3.925q-2.75 0-5.05-.85-2.3-.875-3.65-2.55-1.375-1.675-1.375-4.05l.025-.775h5.15l-.025.55q0 1.55 1.35 2.45 1.375.925 3.825.925 2.6 0 3.75-.7 1.15-.675 1.15-1.825 0-1.025-.75-1.7t-1.9-1.075q-1.125-.4-3.125-.975-2.825-.8-4.575-1.525-1.75-.75-3.025-2.2-1.25-1.45-1.25-3.825 0-3.3 2.65-5 2.675-1.725 7.075-1.725 4.175 0 6.8 1.775 2.65 1.75 2.65 5.3v.425h-5.05v-.325q0-1.325-1.2-2.1-1.2-.775-3.275-.775-2.2 0-3.375.6-1.175.6-1.175 1.65 0 .8.7 1.375t1.75.95q1.05.375 2.975.9 2.875.75 4.725 1.525 1.825.75 3.15 2.2 1.325 1.475 1.325 3.85 0 3.85-2.75 5.675-2.725 1.825-7.5 1.825zm14.275-.425v-25.3h4.8v9.025h.25q2.1-2.55 5.4-2.55 2.825 0 4.45 1.55 1.625 1.525 1.625 4.925v12.35h-4.8v-11.325q0-1.725-.8-2.5-.8-.775-2.375-.775-1.6 0-2.675 1.15-1.075 1.125-1.075 2.825v10.625h-4.8zm24.2 6.375q-.925 0-1.65-.1-.725-.1-1.15-.225l-.5-.125v-3.375h2.275q1.225 0 2-.575.775-.6 1.25-1.975l-7.2-18.4h5l3.475 8.65q.35.9.775 2.55.4 1.675.525 2.225h.175q.125-.525.5-1.925t.775-2.825l2.75-8.675h4.85l-6.2 17.45q-.825 2.325-1.75 3.875-.9 1.55-2.35 2.5-1.45.95-3.55.95zm22.325-6.375v-19.625h-7.425v-4.375h19.925v4.375h-7.425v19.625h-5.075zm23.9.425q-4.725 0-7.025-2.35-2.325-2.35-2.325-7.275 0-4.925 2.325-7.275 2.3-2.35 7.025-2.35 4.725 0 7.05 2.35t2.325 7.275q0 4.925-2.325 7.275-2.325 2.35-7.05 2.35zm0-3.925q2.35 0 3.4-1.35 1.05-1.35 1.05-4.075v-.55q0-2.725-1.05-4.075t-3.4-1.35q-2.35 0-3.375 1.35t-1.025 4.075v.55q0 2.725 1.025 4.075t3.375 1.35zm10.775 3.5l9.4-24h6.35l9.4 24h-5.55l-1.7-4.575h-10.925l-1.725 4.575h-5.25zm8.55-8.825h7.725l-2.275-6.075q-.275-.75-.8-2.45-.525-1.725-.7-2.275h-.175q-.175.55-.7 2.275-.525 1.7-.8 2.45l-2.275 6.075zm26.5 9.25q-3.85 0-6.05-1.6-2.175-1.575-2.175-4.25l.025-.425h4.65v.25q.05 1.225 1.125 1.775 1.05.55 2.6.55 1.425 0 2.45-.4 1-.375 1-1.25 0-.975-1.025-1.475-1.025-.5-3.225-.975-2.275-.525-3.725-1.075-1.425-.55-2.475-1.7t-1.05-3.075q0-2.7 2.25-4.15 2.25-1.45 5.825-1.45 3.325 0 5.5 1.35t2.175 3.65l-.05.8h-4.65v-.05q-.025-1.025-.875-1.525-.825-.525-2.275-.525-1.425 0-2.275.4-.825.375-.825 1.075 0 .875.95 1.3.975.425 3.1.85 2.35.525 3.825 1.05 1.45.525 2.55 1.7 1.075 1.2 1.075 3.225 0 5.95-8.425 5.95zm12.1-.425v-25.3h4.8v14.2l6.1-7.3h5.525l-6.1 7.075 6.45 11.325h-5.5l-4.025-7.8-2.45 2.375v5.425h-4.8z" fill="#fff"/><svg xmlns="http://www.w3.org/2000/svg" viewBox="0 0 100 100" fill="#fff"><switch><g><path d="M88.7 16.4C83.2 10.9 76 7.9 68.3 7.9c-6.4 0-12.5 2.1-17.6 5.9-5.1-3.9-11.1-5.9-17.6-5.9-7.7 0-15 3-20.5 8.5S4.1 29.1 4.1 36.9c0 7.7 3 14.9 8.4 20.3l9.1 9.1L45 89.6c1.5 1.5 3.5 2.3 5.7 2.3 2.1 0 4.1-.8 5.7-2.3l32.4-32.4.1-.1c5.4-5.4 8.4-12.7 8.4-20.3-.1-7.7-3.1-15-8.6-20.4zM48.6 81.8l16-16c.5-.5.7-1.1.7-1.8s-.3-1.3-.7-1.8c-.5-.5-1.1-.7-1.8-.7s-1.3.3-1.8.7l-16 16c-1.1 1.1-3.1 1.1-4.3 0-.6-.6-.9-1.3-.9-2.1s.3-1.6.9-2.1l16-16c.5-.5.7-1.1.7-1.8s-.3-1.3-.7-1.8c-.5-.5-1.1-.7-1.8-.7s-1.3.3-1.8.7l-16 16c-1.1 1.1-3.1 1.1-4.2 0-1.2-1.2-1.2-3.1 0-4.3l16-16c1-1 1-2.6 0-3.5-.9-.9-2.6-.9-3.5 0l-16 16c-1.1 1.1-3.1 1.1-4.3 0-1.2-1.2-1.2-3.1 0-4.2l27.2-27.2c1-1 1-2.6 0-3.5-.9-.9-2.6-.9-3.5 0L34.4 42.3c-1-.3-1.8-.8-2.4-1.3-.8-.8-.6-1-.5-1.1 2.8-2.9 19.7-19.9 19.8-20 4.5-4.5 10.5-7 16.9-7 6.4 0 12.4 2.5 16.9 7 4.5 4.5 7 10.5 7 16.9 0 6.4-2.5 12.4-7 16.9L52.8 86.1c-1.1 1.1-3.1 1.1-4.3 0-.6-.6-.9-1.3-.9-2.1.1-.8.4-1.6 1-2.2zM33.1 12.9c5 0 9.7 1.5 13.8 4.4l-19 19c-2.3 2.3-2.1 5.6.5 8.2.6.6 1.4 1.2 2.2 1.6L21.7 55c-.7.7-1.3 1.6-1.7 2.5l-3.7-3.7-.1-.1c-4.5-4.5-7-10.5-7-16.9 0-6.4 2.5-12.4 7-16.9 4.5-4.5 10.5-7 16.9-7z"/></g></switch></svg></svg>