<svg xmlns="http://www.w3.org/2000/svg" width="551" height="79" viewBox="0 0 551 79"><path d="M121.051 57.124V19.95h-14.064v-8.287h37.742v8.287h-14.064v37.174h-9.614zm45.273.805q-8.95 0-13.307-4.451-4.357-4.452-4.357-13.78 0-9.33 4.357-13.781 4.356-4.452 13.307-4.452 8.95 0 13.354 4.452 4.452 4.451 4.452 13.78 0 9.33-4.452 13.78-4.404 4.452-13.354 4.452zm0-7.435q4.451 0 6.44-2.557 1.99-2.557 1.99-7.719v-1.042q0-5.161-1.99-7.719-1.989-2.557-6.44-2.557-4.404 0-6.393 2.557-1.942 2.558-1.942 7.72v1.041q0 5.162 1.942 7.72 1.989 2.556 6.393 2.556zm40.536 7.435q-8.95 0-13.354-4.451-4.357-4.452-4.357-13.78 0-9.33 4.357-13.781 4.404-4.452 13.354-4.452t13.355 4.452q4.404 4.451 4.404 13.78 0 9.33-4.404 13.78-4.404 4.452-13.355 4.452zm0-7.435q4.452 0 6.44-2.557 1.99-2.557 1.99-7.719v-1.042q0-5.161-1.99-7.719-1.988-2.557-6.44-2.557-4.451 0-6.393 2.557-1.989 2.558-1.989 7.72v1.041q0 5.162 1.99 7.72 1.94 2.556 6.392 2.556zm42.147 7.435q-5.209 0-9.566-1.61-4.356-1.657-6.914-4.83-2.604-3.173-2.604-7.672l.047-1.468h9.755l-.047 1.042q0 2.936 2.557 4.64 2.605 1.753 7.246 1.753 4.925 0 7.103-1.326 2.179-1.279 2.179-3.457 0-1.941-1.421-3.22-1.42-1.279-3.6-2.036-2.13-.758-5.919-1.847-5.35-1.516-8.666-2.889-3.315-1.42-5.73-4.167-2.368-2.747-2.368-7.246 0-6.25 5.02-9.471 5.067-3.268 13.402-3.268 7.908 0 12.88 3.363 5.02 3.315 5.02 10.04v.804h-9.566v-.615q0-2.51-2.273-3.978-2.273-1.468-6.203-1.468-4.168 0-6.393 1.136-2.226 1.137-2.226 3.126 0 1.515 1.326 2.604 1.326 1.09 3.315 1.8 1.989.71 5.635 1.705 5.446 1.42 8.95 2.888 3.457 1.421 5.967 4.168 2.51 2.794 2.51 7.292 0 7.293-5.209 10.75-5.162 3.457-14.207 3.457zm27.04-.805V9.2h9.093v17.096h.473q3.978-4.83 10.23-4.83 5.35 0 8.429 2.935 3.078 2.889 3.078 9.33v23.393h-9.093V35.672q0-3.268-1.515-4.736t-4.499-1.468q-3.03 0-5.067 2.179-2.036 2.13-2.036 5.35v20.127h-9.093zM321.888 69.2q-1.752 0-3.125-.19-1.374-.189-2.179-.426-.758-.19-.947-.236v-6.393h4.31q2.32 0 3.788-1.09 1.468-1.136 2.368-3.74L312.464 22.27h9.471l6.583 16.385q.663 1.705 1.468 4.83.758 3.174.994 4.215h.332q.237-.994.947-3.646t1.468-5.351l5.21-16.433h9.186L336.38 55.325q-1.563 4.404-3.315 7.34-1.705 2.936-4.451 4.735-2.747 1.8-6.725 1.8zm42.289-12.076V19.95h-14.065v-8.287h37.743v8.287H373.79v37.174h-9.613zm45.272.805q-8.95 0-13.307-4.451-4.404-4.452-4.404-13.78 0-9.33 4.404-13.781 4.357-4.452 13.307-4.452t13.355 4.452q4.404 4.451 4.404 13.78 0 9.33-4.404 13.78-4.405 4.452-13.355 4.452zm0-7.435q4.452 0 6.44-2.557 1.99-2.557 1.99-7.719v-1.042q0-5.161-1.99-7.719-1.988-2.557-6.44-2.557-4.451 0-6.393 2.557-1.941 2.558-1.941 7.72v1.041q0 5.162 1.941 7.72 1.942 2.556 6.393 2.556zm20.41 6.63l17.806-45.461h12.029L477.5 57.124h-10.513l-3.22-8.666h-20.695l-3.268 8.666h-9.944zm16.196-16.716h14.633l-4.31-11.508q-.52-1.42-1.514-4.64-.995-3.268-1.326-4.31h-.332q-.331 1.042-1.326 4.31-.994 3.22-1.515 4.64l-4.31 11.508zm50.198 17.521q-7.293 0-11.46-3.03-4.12-2.984-4.12-8.051l.047-.805h8.808v.473q.095 2.32 2.131 3.363 1.99 1.042 4.925 1.042 2.7 0 4.641-.758 1.894-.71 1.894-2.368 0-1.847-1.941-2.794-1.942-.947-6.11-1.847-4.309-.994-7.055-2.036-2.7-1.042-4.689-3.22-1.988-2.179-1.988-5.825 0-5.115 4.262-7.861 4.262-2.747 11.034-2.747 6.298 0 10.418 2.557 4.12 2.558 4.12 6.914l-.095 1.516h-8.808v-.095q-.047-1.942-1.658-2.889-1.562-.994-4.309-.994-2.7 0-4.31.758-1.562.71-1.562 2.036 0 1.657 1.8 2.462 1.846.805 5.872 1.61 4.451.995 7.245 1.99 2.747.994 4.83 3.22 2.037 2.273 2.037 6.109 0 11.27-15.96 11.27zm22.92-.805V9.2h9.092v26.898L539.82 22.27h10.466L538.73 35.672l12.218 21.452H540.53l-7.624-14.775-4.64 4.499v10.276h-9.093z"/><switch transform="translate(-3.22 -6.673) scale(.93333)"><g><path d="M88.7 16.4C83.2 10.9 76 7.9 68.3 7.9c-6.4 0-12.5 2.1-17.6 5.9-5.1-3.9-11.1-5.9-17.6-5.9-7.7 0-15 3-20.5 8.5S4.1 29.1 4.1 36.9c0 7.7 3 14.9 8.4 20.3l9.1 9.1L45 89.6c1.5 1.5 3.5 2.3 5.7 2.3 2.1 0 4.1-.8 5.7-2.3l32.4-32.4.1-.1c5.4-5.4 8.4-12.7 8.4-20.3-.1-7.7-3.1-15-8.6-20.4zM48.6 81.8l16-16c.5-.5.7-1.1.7-1.8s-.3-1.3-.7-1.8c-.5-.5-1.1-.7-1.8-.7s-1.3.3-1.8.7l-16 16c-1.1 1.1-3.1 1.1-4.3 0-.6-.6-.9-1.3-.9-2.1s.3-1.6.9-2.1l16-16c.5-.5.7-1.1.7-1.8s-.3-1.3-.7-1.8c-.5-.5-1.1-.7-1.8-.7s-1.3.3-1.8.7l-16 16c-1.1 1.1-3.1 1.1-4.2 0-1.2-1.2-1.2-3.1 0-4.3l16-16c1-1 1-2.6 0-3.5-.9-.9-2.6-.9-3.5 0l-16 16c-1.1 1.1-3.1 1.1-4.3 0-1.2-1.2-1.2-3.1 0-4.2l27.2-27.2c1-1 1-2.6 0-3.5-.9-.9-2.6-.9-3.5 0L34.4 42.3c-1-.3-1.8-.8-2.4-1.3-.8-.8-.6-1-.5-1.1 2.8-2.9 19.7-19.9 19.8-20 4.5-4.5 10.5-7 16.9-7 6.4 0 12.4 2.5 16.9 7 4.5 4.5 7 10.5 7 16.9 0 6.4-2.5 12.4-7 16.9L52.8 86.1c-1.1 1.1-3.1 1.1-4.3 0-.6-.6-.9-1.3-.9-2.1.1-.8.4-1.6 1-2.2zM33.1 12.9c5 0 9.7 1.5 13.8 4.4l-19 19c-2.3 2.3-2.1 5.6.5 8.2.6.6 1.4 1.2 2.2 1.6L21.7 55c-.7.7-1.3 1.6-1.7 2.5l-3.7-3.7-.1-.1c-4.5-4.5-7-10.5-7-16.9 0-6.4 2.5-12.4 7-16.9 4.5-4.5 10.5-7 16.9-7z"/></g></switch></svg>