<svg xmlns="http://www.w3.org/2000/svg" viewBox="0 0 300 300"><linearGradient gradientTransform="rotate(25)" id="a" x1="0%" y1="0%" y2="0%"><stop offset="0%" stop-color="#f00079"/><stop offset="100%" stop-color="#f2a041"/></linearGradient><path fill="url(#a)" class="logo-background-square" d="M0 0h300v300H0z"/><path d="M99.613 157.191v-14.915H93.97v-3.325h15.143v3.325h-5.643v14.915h-3.857zm18.164.323q-3.591 0-5.34-1.786-1.747-1.786-1.747-5.529t1.748-5.529q1.748-1.786 5.339-1.786 3.59 0 5.358 1.786 1.786 1.786 1.786 5.53 0 3.742-1.786 5.528-1.767 1.786-5.358 1.786zm0-2.983q1.786 0 2.584-1.026t.798-3.097v-.418q0-2.07-.798-3.097-.798-1.026-2.584-1.026-1.767 0-2.565 1.026-.78 1.026-.78 3.097v.418q0 2.071.78 3.097.798 1.026 2.565 1.026zm16.264 2.983q-3.591 0-5.358-1.786-1.748-1.786-1.748-5.529t1.748-5.529q1.767-1.786 5.358-1.786 3.59 0 5.358 1.786 1.767 1.786 1.767 5.53 0 3.742-1.767 5.528-1.767 1.786-5.358 1.786zm0-2.983q1.786 0 2.584-1.026t.798-3.097v-.418q0-2.07-.798-3.097-.798-1.026-2.584-1.026t-2.565 1.026q-.798 1.026-.798 3.097v.418q0 2.071.798 3.097.779 1.026 2.565 1.026zm16.91 2.983q-2.09 0-3.838-.646-1.748-.665-2.774-1.938-1.045-1.273-1.045-3.078l.019-.589h3.914l-.02.418q0 1.178 1.027 1.862 1.045.703 2.907.703 1.976 0 2.85-.532.874-.513.874-1.387 0-.779-.57-1.292t-1.444-.817q-.855-.304-2.375-.74-2.147-.609-3.477-1.16-1.33-.57-2.3-1.672-.95-1.102-.95-2.907 0-2.508 2.015-3.8 2.033-1.31 5.377-1.31 3.173 0 5.168 1.348 2.014 1.33 2.014 4.028v.323h-3.838v-.247q0-1.007-.912-1.596-.912-.589-2.49-.589-1.671 0-2.564.456t-.893 1.254q0 .608.532 1.045.532.437 1.33.722t2.26.684q2.186.57 3.592 1.16 1.387.57 2.394 1.671 1.007 1.121 1.007 2.926 0 2.926-2.09 4.313-2.071 1.387-5.7 1.387zm10.849-.323v-19.228h3.648v6.86h.19q1.596-1.939 4.104-1.939 2.147 0 3.382 1.178 1.235 1.16 1.235 3.743v9.386h-3.648v-8.607q0-1.31-.608-1.9-.608-.589-1.805-.589-1.216 0-2.033.874-.817.855-.817 2.147v8.075H161.8zm18.392 4.845q-.703 0-1.254-.076t-.874-.17l-.38-.096v-2.565h1.729q.93 0 1.52-.437.589-.456.95-1.5l-5.472-13.985h3.8l2.64 6.574q.267.684.59 1.938.304 1.273.399 1.691h.133q.095-.399.38-1.463.285-1.064.589-2.147l2.09-6.593h3.686l-4.712 13.262q-.627 1.767-1.33 2.945-.684 1.178-1.786 1.9-1.102.722-2.698.722zm16.967-4.845v-14.915h-5.643v-3.325h15.143v3.325h-5.643v14.915h-3.857zm18.164.323q-3.591 0-5.34-1.786-1.766-1.786-1.766-5.529t1.767-5.529q1.748-1.786 5.339-1.786 3.59 0 5.358 1.786 1.767 1.786 1.767 5.53 0 3.742-1.767 5.528-1.767 1.786-5.358 1.786zm0-2.983q1.786 0 2.584-1.026t.798-3.097v-.418q0-2.07-.798-3.097-.798-1.026-2.584-1.026t-2.565 1.026q-.78 1.026-.78 3.097v.418q0 2.071.78 3.097.779 1.026 2.565 1.026zm8.189 2.66l7.144-18.24h4.826l7.144 18.24h-4.218l-1.292-3.477h-8.303l-1.311 3.477h-3.99zm6.498-6.707h5.87l-1.728-4.617q-.21-.57-.608-1.862-.4-1.31-.532-1.729h-.133q-.133.418-.532 1.73-.4 1.291-.608 1.861l-1.73 4.617zm20.14 7.03q-2.926 0-4.598-1.216-1.653-1.197-1.653-3.23l.019-.323h3.534v.19q.038.931.855 1.35.798.417 1.976.417 1.083 0 1.862-.304.76-.285.76-.95 0-.74-.78-1.12-.778-.38-2.45-.742-1.73-.399-2.831-.817-1.083-.418-1.881-1.292-.798-.874-.798-2.337 0-2.052 1.71-3.154 1.71-1.102 4.427-1.102 2.527 0 4.18 1.026 1.653 1.026 1.653 2.774l-.038.608h-3.534v-.038q-.02-.779-.665-1.159-.627-.399-1.73-.399-1.082 0-1.728.304-.627.285-.627.817 0 .665.722.988.74.323 2.356.646 1.786.4 2.907.798 1.102.4 1.938 1.292.817.912.817 2.451 0 4.522-6.403 4.522zm9.196-.323v-19.228h3.648v10.792l4.636-5.548h4.199l-4.636 5.377 4.902 8.607h-4.18l-3.06-5.928-1.861 1.805v4.123h-3.648z" fill="#fff"/><svg xmlns="http://www.w3.org/2000/svg" viewBox="0 0 100 100" fill="#fff"><switch><g><path d="M88.7 16.4C83.2 10.9 76 7.9 68.3 7.9c-6.4 0-12.5 2.1-17.6 5.9-5.1-3.9-11.1-5.9-17.6-5.9-7.7 0-15 3-20.5 8.5S4.1 29.1 4.1 36.9c0 7.7 3 14.9 8.4 20.3l9.1 9.1L45 89.6c1.5 1.5 3.5 2.3 5.7 2.3 2.1 0 4.1-.8 5.7-2.3l32.4-32.4.1-.1c5.4-5.4 8.4-12.7 8.4-20.3-.1-7.7-3.1-15-8.6-20.4zM48.6 81.8l16-16c.5-.5.7-1.1.7-1.8s-.3-1.3-.7-1.8c-.5-.5-1.1-.7-1.8-.7s-1.3.3-1.8.7l-16 16c-1.1 1.1-3.1 1.1-4.3 0-.6-.6-.9-1.3-.9-2.1s.3-1.6.9-2.1l16-16c.5-.5.7-1.1.7-1.8s-.3-1.3-.7-1.8c-.5-.5-1.1-.7-1.8-.7s-1.3.3-1.8.7l-16 16c-1.1 1.1-3.1 1.1-4.2 0-1.2-1.2-1.2-3.1 0-4.3l16-16c1-1 1-2.6 0-3.5-.9-.9-2.6-.9-3.5 0l-16 16c-1.1 1.1-3.1 1.1-4.3 0-1.2-1.2-1.2-3.1 0-4.2l27.2-27.2c1-1 1-2.6 0-3.5-.9-.9-2.6-.9-3.5 0L34.4 42.3c-1-.3-1.8-.8-2.4-1.3-.8-.8-.6-1-.5-1.1 2.8-2.9 19.7-19.9 19.8-20 4.5-4.5 10.5-7 16.9-7 6.4 0 12.4 2.5 16.9 7 4.5 4.5 7 10.5 7 16.9 0 6.4-2.5 12.4-7 16.9L52.8 86.1c-1.1 1.1-3.1 1.1-4.3 0-.6-.6-.9-1.3-.9-2.1.1-.8.4-1.6 1-2.2zM33.1 12.9c5 0 9.7 1.5 13.8 4.4l-19 19c-2.3 2.3-2.1 5.6.5 8.2.6.6 1.4 1.2 2.2 1.6L21.7 55c-.7.7-1.3 1.6-1.7 2.5l-3.7-3.7-.1-.1c-4.5-4.5-7-10.5-7-16.9 0-6.4 2.5-12.4 7-16.9 4.5-4.5 10.5-7 16.9-7z"/></g></switch></svg></svg>