<svg xmlns="http://www.w3.org/2000/svg" viewBox="0 0 300 300"><linearGradient gradientTransform="rotate(25)" id="a" x1="0%" y1="0%" y2="0%"><stop offset="0%" stop-color="#f00079"/><stop offset="100%" stop-color="#f2a041"/></linearGradient><path fill="url(#a)" class="logo-background-square" d="M0 0h300v300H0z"/><svg xmlns="http://www.w3.org/2000/svg" viewBox="0 0 100 100" fill="#fff"><switch><g><path d="M88.7 16.4C83.2 10.9 76 7.9 68.3 7.9c-6.4 0-12.5 2.1-17.6 5.9-5.1-3.9-11.1-5.9-17.6-5.9-7.7 0-15 3-20.5 8.5S4.1 29.1 4.1 36.9c0 7.7 3 14.9 8.4 20.3l9.1 9.1L45 89.6c1.5 1.5 3.5 2.3 5.7 2.3 2.1 0 4.1-.8 5.7-2.3l32.4-32.4.1-.1c5.4-5.4 8.4-12.7 8.4-20.3-.1-7.7-3.1-15-8.6-20.4zM48.6 81.8l16-16c.5-.5.7-1.1.7-1.8s-.3-1.3-.7-1.8c-.5-.5-1.1-.7-1.8-.7s-1.3.3-1.8.7l-16 16c-1.1 1.1-3.1 1.1-4.3 0-.6-.6-.9-1.3-.9-2.1s.3-1.6.9-2.1l16-16c.5-.5.7-1.1.7-1.8s-.3-1.3-.7-1.8c-.5-.5-1.1-.7-1.8-.7s-1.3.3-1.8.7l-16 16c-1.1 1.1-3.1 1.1-4.2 0-1.2-1.2-1.2-3.1 0-4.3l16-16c1-1 1-2.6 0-3.5-.9-.9-2.6-.9-3.5 0l-16 16c-1.1 1.1-3.1 1.1-4.3 0-1.2-1.2-1.2-3.1 0-4.2l27.2-27.2c1-1 1-2.6 0-3.5-.9-.9-2.6-.9-3.5 0L34.4 42.3c-1-.3-1.8-.8-2.4-1.3-.8-.8-.6-1-.5-1.1 2.8-2.9 19.7-19.9 19.8-20 4.5-4.5 10.5-7 16.9-7 6.4 0 12.4 2.5 16.9 7 4.5 4.5 7 10.5 7 16.9 0 6.4-2.5 12.4-7 16.9L52.8 86.1c-1.1 1.1-3.1 1.1-4.3 0-.6-.6-.9-1.3-.9-2.1.1-.8.4-1.6 1-2.2zM33.1 12.9c5 0 9.7 1.5 13.8 4.4l-19 19c-2.3 2.3-2.1 5.6.5 8.2.6.6 1.4 1.2 2.2 1.6L21.7 55c-.7.7-1.3 1.6-1.7 2.5l-3.7-3.7-.1-.1c-4.5-4.5-7-10.5-7-16.9 0-6.4 2.5-12.4 7-16.9 4.5-4.5 10.5-7 16.9-7z"/></g></switch></svg></svg>