<svg height="512" width="512" xmlns="http://www.w3.org/2000/svg" xmlns:xlink="http://www.w3.org/1999/xlink"><defs><linearGradient id="a"><stop offset="0" stop-color="#fff"/><stop offset="1" stop-color="#fff" stop-opacity="0"/></linearGradient><radialGradient cx="-585.614" cy="611.847" fx="-585.614" fy="611.847" gradientTransform="matrix(1 0 0 .99927 605.764 6.618)" gradientUnits="userSpaceOnUse" id="b" r="35.891" xlink:href="#a"/></defs><path d="M256.014 512c-96.75 0-179.2-61.254-210.64-147.11 37 79.244 117.383 134.142 210.612 134.142 93.23 0 173.642-54.895 210.64-134.142C435.195 450.746 352.767 512 256.015 512z" fill="#d9d9d9"/><g transform="translate(364.574 -550.689) scale(1.00577)"><path d="M141.226 796.709a249.178 249.178 0 0 1-249.178 249.178A249.178 249.178 0 0 1-357.13 796.709 249.178 249.178 0 0 1-107.952 547.53a249.178 249.178 0 0 1 249.178 249.178z" fill="#f8f6de"/><path d="M127.14 797.033a235.093 234.92 0 0 1-235.092 234.92 235.093 234.92 0 0 1-235.093-234.92 235.093 234.92 0 0 1 235.093-234.92 235.093 234.92 0 0 1 235.093 234.92z" fill="#3c517d"/><path d="M-338.635 840.94a235.093 234.92 0 0 1 98.974-239 235.093 234.92 0 0 1 258.824-3.227 235.093 234.92 0 0 1 104.91 236.458l-231.874-38.743z" fill="#9adbb6"/><path d="M-338.873 753.763a235.093 234.92 0 0 0-4.172 43.27 235.093 234.92 0 0 0 13.117 76.521h443.975a235.093 234.92 0 0 0 13.094-76.521 235.093 234.92 0 0 0-4.17-43.27h-461.844z" fill="#9adbb6"/><path d="M-239.879 879.528a39.736 23.483 0 0 1-39.736 23.483 39.736 23.483 0 0 1-39.736-23.483 39.736 23.483 0 0 1 39.736-23.482 39.736 23.483 0 0 1 39.736 23.482zm346.519 4.697a39.736 23.483 0 0 1-39.737 23.482 39.736 23.483 0 0 1-39.736-23.482 39.736 23.483 0 0 1 39.736-23.483 39.736 23.483 0 0 1 39.736 23.483z" fill="#3c517d"/><path d="M-191.483 869.201a39.736 23.483 0 0 1-39.737 23.483 39.736 23.483 0 0 1-39.736-23.483 39.736 23.483 0 0 1 39.736-23.483 39.736 23.483 0 0 1 39.737 23.483zm263.735 9.183a39.736 23.483 0 0 1-39.737 23.482A39.736 23.483 0 0 1-7.22 878.384 39.736 23.483 0 0 1 32.515 854.9a39.736 23.483 0 0 1 39.737 23.483z" fill="#3c517d"/><path d="M-51.274 742.31a3.554 3.551 0 0 1-3.554 3.55 3.554 3.551 0 0 1-3.554-3.551 3.554 3.551 0 0 1 3.554-3.551 3.554 3.551 0 0 1 3.554 3.551z" fill="#fff"/><path d="M56.041 618.016a35.89 35.865 0 0 1-35.89 35.865 35.89 35.865 0 0 1-35.892-35.865 35.89 35.865 0 0 1 35.891-35.864 35.89 35.865 0 0 1 35.891 35.864z" fill="url(#b)"/><path d="M-255.808 681.784a4.335 4.332 0 0 1-4.335 4.332 4.335 4.332 0 0 1-4.334-4.332 4.335 4.332 0 0 1 4.334-4.331 4.335 4.332 0 0 1 4.335 4.331zm95.368-47.648a4.335 4.332 0 0 1-4.336 4.332 4.335 4.332 0 0 1-4.334-4.332 4.335 4.332 0 0 1 4.334-4.332 4.335 4.332 0 0 1 4.335 4.332zm88.864 21.658a4.335 4.332 0 0 1-4.335 4.332 4.335 4.332 0 0 1-4.335-4.332 4.335 4.332 0 0 1 4.335-4.331 4.335 4.332 0 0 1 4.335 4.331zm-2.167 69.307a4.335 4.332 0 0 1-4.335 4.332 4.335 4.332 0 0 1-4.335-4.332 4.335 4.332 0 0 1 4.335-4.332 4.335 4.332 0 0 1 4.335 4.332zm67.19 17.327a4.335 4.332 0 0 1-4.335 4.332 4.335 4.332 0 0 1-4.335-4.332 4.335 4.332 0 0 1 4.335-4.332 4.335 4.332 0 0 1 4.335 4.332zm104.037-23.824a4.335 4.332 0 0 1-4.335 4.331 4.335 4.332 0 0 1-4.335-4.331 4.335 4.332 0 0 1 4.335-4.332 4.335 4.332 0 0 1 4.335 4.332zm-312.111-103.961a4.335 4.332 0 0 1-4.334 4.332 4.335 4.332 0 0 1-4.335-4.332 4.335 4.332 0 0 1 4.335-4.331 4.335 4.332 0 0 1 4.334 4.331zm-7.244 99.652a4.335 4.332 0 0 1-4.335 4.332 4.335 4.332 0 0 1-4.335-4.332 4.335 4.332 0 0 1 4.335-4.331 4.335 4.332 0 0 1 4.335 4.331zm-81.182 35.011a4.335 4.332 0 0 1-4.335 4.332 4.335 4.332 0 0 1-4.334-4.332 4.335 4.332 0 0 1 4.334-4.332 4.335 4.332 0 0 1 4.335 4.332zm55.546 36.718a4.335 4.332 0 0 1-4.335 4.332 4.335 4.332 0 0 1-4.335-4.332 4.335 4.332 0 0 1 4.335-4.331 4.335 4.332 0 0 1 4.335 4.331zm-77.763 23.91a4.335 4.332 0 0 1-4.336 4.332 4.335 4.332 0 0 1-4.335-4.332 4.335 4.332 0 0 1 4.335-4.332 4.335 4.332 0 0 1 4.335 4.332zm411.035 29.033a4.335 4.332 0 0 1-4.335 4.332 4.335 4.332 0 0 1-4.335-4.332 4.335 4.332 0 0 1 4.335-4.331 4.335 4.332 0 0 1 4.335 4.331zm-23.927-57.212a4.335 4.332 0 0 1-4.335 4.332 4.335 4.332 0 0 1-4.335-4.332 4.335 4.332 0 0 1 4.335-4.332 4.335 4.332 0 0 1 4.335 4.332zm-28.2-46.965a4.335 4.332 0 0 1-4.335 4.33 4.335 4.332 0 0 1-4.335-4.33 4.335 4.332 0 0 1 4.335-4.332 4.335 4.332 0 0 1 4.335 4.331zm79.472 29.886a4.335 4.332 0 0 1-4.334 4.332 4.335 4.332 0 0 1-4.335-4.332 4.335 4.332 0 0 1 4.335-4.331 4.335 4.332 0 0 1 4.334 4.331zm-55.545-81.122a4.335 4.332 0 0 1-4.335 4.332 4.335 4.332 0 0 1-4.335-4.332 4.335 4.332 0 0 1 4.335-4.331 4.335 4.332 0 0 1 4.335 4.331zm-71.782-5.977a4.335 4.332 0 0 1-4.335 4.332 4.335 4.332 0 0 1-4.334-4.332 4.335 4.332 0 0 1 4.334-4.332 4.335 4.332 0 0 1 4.335 4.332zm-37.6-86.246a4.335 4.332 0 0 1-4.334 4.332 4.335 4.332 0 0 1-4.335-4.332A4.335 4.332 0 0 1-56.151 587a4.335 4.332 0 0 1 4.334 4.331zm-70.927 1.708a4.335 4.332 0 0 1-4.335 4.332 4.335 4.332 0 0 1-4.335-4.332 4.335 4.332 0 0 1 4.335-4.332 4.335 4.332 0 0 1 4.335 4.332z" fill="#fff"/><ellipse cx="-177.497" cy="575.961" rx="4.335" ry="4.332" fill="#fff"/><ellipse cx="-285.169" cy="644.274" rx="4.335" ry="4.332" fill="#fff"/><path d="M-116.762 688.678a4.335 4.332 0 0 1-4.335 4.331 4.335 4.332 0 0 1-4.335-4.331 4.335 4.332 0 0 1 4.335-4.332 4.335 4.332 0 0 1 4.335 4.332z" fill="#fff"/><ellipse cx="-103.151" cy="783.463" rx="4.335" ry="4.332" fill="#fff"/><path d="M-123.318 739.915h1.43a2.42 2.42 0 0 1 2.426 2.424v27.606a2.42 2.42 0 0 1-2.427 2.425h-1.429a2.42 2.42 0 0 1-2.426-2.425V742.34a2.42 2.42 0 0 1 2.426-2.424z" fill="#3c517d"/><path d="M-232.071 881.938a114.293 118.66 14.847 0 1 54.56-113.35 114.293 118.66 14.847 0 1 121.633-.65A114.293 118.66 14.847 0 1-4.253 880.72" fill="#3c517d"/><path d="M-230.27 886.096a112.505 119.094 9.52 0 1 53.657-113.868 112.505 119.094 9.52 0 1 119.623-.652A112.505 119.094 9.52 0 1-6.219 884.874" fill="#456196"/><path d="M-5.321 884.662a126.782 31.767-1.66 0 1-117.697 18.109 126.782 31.767-1.66 0 1-106.83-16.487" fill="#456196"/><path fill="#456196" d="M-230.079 881.619h197.862v4.854h-197.862z"/><path d="M-22.123 823.837l6.31-2.24 5.7-.815-29.109-2.444-.61 6.313 15.266.815z" fill="#3c517d"/><path d="M-114.552 746.179l-8.391-5.586-6.728 6.987 2.723-9.701-8.729-4.235 10.074-.41 1.333-9.604 3.504 9.447 9.553-1.7-7.91 6.249z" fill="#456196"/><path d="M1561.296 1692.562a108.546 72.805 0 0 1-58.763 64.696 108.546 72.805 0 0 1-112.664-5.352" transform="matrix(.99183 .12754 -.91836 .39574 0 0)" fill="none" stroke="gray" stroke-width="2.059" stroke-opacity=".133"/><path d="M-11.713 848.923C-35.45 859.152-78.8 865.862-124.297 866.19c-45.496.329-85.268-5.813-102.904-15.877l-2.638.635c17.957 10.248 58.171 16.45 104.401 16.115 46.23-.334 91.002-7.182 115.81-17.872l-2.085-.268zm.381-19.739c-23.09 9.088-65.293 15.057-109.619 15.35-44.325.292-83.081-5.175-100.261-14.13l-2.761.616c17.513 9.127 56.72 14.65 101.804 14.352 45.083-.297 88.775-6.397 113.005-15.933l-2.168-.255zm-10.74-20.541c-20.916 9.965-59.115 16.503-99.22 16.823-40.105.32-75.169-5.667-90.714-15.475l-2.51.657c15.856 10.004 51.354 16.057 92.17 15.73 40.816-.325 80.358-7.012 102.27-17.452l-1.996-.283zm-11.116-17.95c-18.608 10.428-52.57 17.263-88.219 17.598-35.65.335-66.818-5.925-80.636-16.18l-2.315.689c14.112 10.473 45.707 16.81 82.035 16.468 36.329-.341 71.519-7.343 91.004-18.263l-1.869-.312zM-52.14 772.96c-14.012 5.825-39.717 9.68-66.857 9.869-27.14.189-50.906-3.353-61.419-9.14l-2.687.627c10.838 5.967 35.05 9.567 62.933 9.373 27.884-.194 55.037-4.185 70.146-10.466l-2.117-.263z" style="line-height:normal;text-indent:0;text-align:start;text-decoration-line:none;text-decoration-style:solid;text-decoration-color:#000;text-transform:none;block-progression:tb;isolation:auto;mix-blend-mode:normal" color="#000" font-weight="400" font-family="sans-serif" white-space="normal" overflow="visible" fill="#3c517d"/><path d="M-196.386 896.495c.217-18.413 8.916-48.884 22.769-79.126 13.853-30.241 30.113-54.435 42.581-63.358l.489-2.608c-12.768 9.137-29.256 33.685-43.402 64.564-14.145 30.88-23.316 62.68-23.546 82.271zm103.703-142.038c13.695 12.322 30.85 38.974 44.429 69.339 13.578 30.365 21.169 59.134 19.641 74.382l1.638 2.09c1.564-15.615-6.143-44.79-20.008-75.796-13.865-31.006-31.707-58.889-46.278-71.998l.578 1.983zm-20.571 145.985c-5.194-15.68-7.865-44.048-6.861-74.545 1.003-30.497 5.544-58.156 11.857-72.233l-.523-2.737c-6.47 14.427-11.08 42.51-12.108 73.75-1.027 31.242 1.704 61.1 7.284 77.944l.35-2.18z" style="line-height:normal;text-indent:0;text-align:start;text-decoration-line:none;text-decoration-style:solid;text-decoration-color:#000;text-transform:none;block-progression:tb;isolation:auto;mix-blend-mode:normal" color="#000" font-weight="400" font-family="sans-serif" white-space="normal" overflow="visible" fill="#3c517d"/><path d="M-79.012 900.044a39.335 73.329.802 0 1 18.734-70.209 39.335 73.329.802 0 1 41.765-.402A39.335 73.329.802 0 1-.787 899.29" fill="#3c517d"/><path d="M-50.963 900.19a39.83 71.317.864 0 1 18.97-68.283 39.83 71.317.864 0 1 42.29-.391 39.83 71.317.864 0 1 17.95 67.94" fill="#456196"/><path d="M-35.06 899.698a26.702 47.81.864 0 1 12.716-45.775 26.702 47.81.864 0 1 28.352-.262 26.702 47.81.864 0 1 12.033 45.546m-221.665.99a39.736 23.483 0 0 1-39.736 23.482 39.736 23.483 0 0 1-39.736-23.482 39.736 23.483 0 0 1 39.736-23.483 39.736 23.483 0 0 1 39.736 23.482z" fill="#3c517d"/><path d="M-138.364 917.103a39.736 23.483 0 0 1-39.737 23.483 39.736 23.483 0 0 1-39.736-23.483A39.736 23.483 0 0 1-178.1 893.62a39.736 23.483 0 0 1 39.737 23.483zM45.33 905.027A39.736 23.483 0 0 1 5.592 928.51a39.736 23.483 0 0 1-39.737-23.483 39.736 23.483 0 0 1 39.737-23.483 39.736 23.483 0 0 1 39.736 23.483z" fill="#3c517d"/><path d="M-9.618 923.465a39.736 23.483 0 0 1-39.737 23.483 39.736 23.483 0 0 1-39.736-23.483 39.736 23.483 0 0 1 39.736-23.483 39.736 23.483 0 0 1 39.737 23.483z" fill="#3c517d"/><path d="M-67.727 923.465a39.736 23.483 0 0 1-39.737 23.483 39.736 23.483 0 0 1-39.736-23.483 39.736 23.483 0 0 1 39.736-23.483 39.736 23.483 0 0 1 39.737 23.483z" fill="#3c517d"/><path d="M-107.808 561.465c-98.522 0-185.796 60.946-217.813 146.801 37.678-79.244 122.849-133.834 217.784-133.834 94.937 0 179.982 54.202 217.658 133.449C77.813 622.025-9.286 561.465-107.808 561.465z" opacity=".15" fill="#3b3c3d"/></g></svg>