<svg height="512" width="512" xmlns="http://www.w3.org/2000/svg" xmlns:xlink="http://www.w3.org/1999/xlink"><defs><linearGradient id="a"><stop offset="0" stop-color="#fff"/><stop offset="1" stop-color="#fff" stop-opacity="0"/></linearGradient><clipPath id="c"><path d="M457.143 229.143a205.714 205.714 0 1 1-411.429 0H251.43z" transform="rotate(180 207.548 127.454) scale(.44444)" fill="#4bb7c0"/></clipPath><clipPath id="b"><path d="M457.143 229.143a205.714 205.714 0 1 1-411.429 0 205.714 205.714 0 1 1 411.429 0z" transform="matrix(1.16667 0 0 .93144 -33.642 570.633)" fill="#456196"/></clipPath><radialGradient cx="340.229" cy="79.298" fx="340.229" fy="79.298" gradientUnits="userSpaceOnUse" id="d" r="13.958" xlink:href="#a"/></defs><path d="M6.563 256C6.563 393.76 118.24 505.437 256 505.437S505.437 393.76 505.437 256 393.76 6.563 256 6.563 6.563 118.24 6.563 256z" fill="#fff" stroke="#fff" stroke-width="1.126"/><path d="M16.308 256.33c0 132.464 107.383 239.847 239.846 239.847C388.617 496.177 496 388.794 496 256.33S388.617 16.484 256.154 16.484c-132.463 0-239.846 107.382-239.846 239.846z" fill="#f3f3f3"/><path d="M491.347 301.158C516.446 171.095 431.354 45.311 301.29 20.213 171.227-4.886 45.443 80.206 20.345 210.269a239.846 239.846 0 0 0-1.06 85l236.56-39.555z" fill="#86d0ef"/><path clip-path="url(#b)" d="M27.916 846.48h465.852l108.176-97.707H-54.088c-6.979 0 82.004 97.707 82.004 97.707z" transform="matrix(-.99936 0 0 1.25173 515.679 -725.112)" fill="#86d0ef"/><path d="M390.594 340.556c0 13.241 18.15 23.975 40.54 23.975s40.54-10.734 40.54-23.975c0-13.241-18.15-23.975-40.54-23.975s-40.54 10.734-40.54 23.975zM37.07 345.351c0 13.241 18.15 23.975 40.54 23.975s40.54-10.734 40.54-23.975c0-13.241-18.15-23.975-40.54-23.975s-40.54 10.734-40.54 23.975z" fill="#f3f3f3"/><path d="M341.22 330.012c0 13.242 18.15 23.976 40.54 23.976s40.54-10.734 40.54-23.976c0-13.24-18.15-23.975-40.54-23.975s-40.54 10.734-40.54 23.975zm-269.067 9.375c0 13.241 18.15 23.975 40.54 23.975s40.54-10.734 40.54-23.975c0-13.24-18.15-23.975-40.54-23.975s-40.54 10.734-40.54 23.975z" fill="#f3f3f3"/><path clip-path="url(#c)" d="M354.187 79.298c0 7.71-6.249 13.958-13.958 13.958-7.709 0-13.958-6.249-13.958-13.958 0-7.709 6.25-13.958 13.958-13.958 7.709 0 13.958 6.25 13.958 13.958z" transform="translate(-504.435 -131.997) scale(2.62331)" fill="url(#d)"/><path d="M406.845 138.666a4.423 4.423 0 1 0 8.845 0 4.423 4.423 0 0 0-8.845 0zM309.55 90.018a4.423 4.423 0 1 0 8.845 0 4.423 4.423 0 0 0-8.845 0zm-90.661 22.112a4.423 4.423 0 1 0 8.845 0 4.423 4.423 0 0 0-8.845 0zm-13.828 64.592a4.423 4.423 0 1 0 8.845 0 4.423 4.423 0 0 0-8.845 0zm-78.418 12.755a4.423 4.423 0 1 0 8.845 0 4.423 4.423 0 0 0-8.845 0zm-80.232-13.22a4.423 4.423 0 1 0 8.845 0 4.423 4.423 0 0 0-8.845 0zm74.141-82.699a4.423 4.423 0 1 0 8.845 0 4.423 4.423 0 0 0-8.845 0zm245.502 88.17a4.423 4.423 0 1 0 8.845 0 4.423 4.423 0 0 0-8.845 0zm88.991 25.875a4.423 4.423 0 1 0 8.846 0 4.423 4.423 0 0 0-8.846 0zm-56.668 37.488a4.423 4.423 0 1 0 8.845 0 4.423 4.423 0 0 0-8.845 0zm79.336 24.412a4.423 4.423 0 1 0 8.845 0 4.423 4.423 0 0 0-8.845 0zM58.366 299.145a4.423 4.423 0 1 0 8.845 0 4.423 4.423 0 0 0-8.845 0zm42.917-52.244a4.423 4.423 0 1 0 8.846 0 4.423 4.423 0 0 0-8.846 0zm-70.815-23.605a4.423 4.423 0 1 0 8.845 0 4.423 4.423 0 0 0-8.845 0zm56.669-82.823a4.423 4.423 0 1 0 8.845 0 4.423 4.423 0 0 0-8.845 0zm73.233-6.103a4.423 4.423 0 1 0 8.845 0 4.423 4.423 0 0 0-8.845 0zm38.36-88.054a4.423 4.423 0 1 0 8.845 0 4.423 4.423 0 0 0-8.845 0zm72.361 1.744a4.423 4.423 0 1 0 8.845 0 4.423 4.423 0 0 0-8.845 0zm51.438-17.437a4.423 4.423 0 1 0 8.845 0 4.423 4.423 0 0 0-8.845 0zM158.254 42.504a4.423 4.423 0 1 0-7.92-3.938 4.423 4.423 0 0 0 7.92 3.938zm149.915 110.602a4.423 4.423 0 1 0 8.845 0 4.423 4.423 0 0 0-8.845 0zm-61.489 89.37a4.423 4.423 0 1 0 8.845 0 4.423 4.423 0 0 0-8.845 0z" fill="#fff"/><g transform="matrix(-1 0 0 1 530.54 -541.904)"><rect height="43.605" ry="3.258" transform="scale(-1 1)" width="6.409" x="-274.152" y="727.908" fill="#e9e9e9"/><path d="M265.988 728.708v14.395l-22.246-6.107z" fill="#e74c3c"/></g><g fill="#fff"><path d="M382.629 343.016c6.089-66.324-41.08-126.192-105.356-133.72-64.275-7.53-121.317 40.134-127.406 106.457-.794 8.643-.68 17.368.337 26.02"/><path d="M380.791 347.262c5.988-66.627-40.4-126.769-103.613-134.332-63.213-7.562-119.311 40.318-125.3 106.944a128.26 128.26 0 0 0 .332 26.14"/><path d="M151.294 345.798c37.674 16.246 117.389 23.088 178.05 15.282 22.803-2.934 40.633-7.696 51.017-13.626"/><path d="M380.596 342.69H178.733v4.956h201.863z"/></g><path d="M168.436 283.697l-6.438-2.287-5.815-.832 29.697-2.495.623 6.445-15.575.832z" fill="#e9e9e9"/><path d="M6339.717 610.091c0 167.17-148.341 302.687-331.33 302.687-68.787 0-135.87-19.559-191.94-55.963" transform="matrix(-.3315 .04266 .22536 .09718 2115.957 .015)" fill="none" stroke="#e9e9e9" stroke-width="7.376"/><path d="M6339.717 610.091c0 167.17-148.341 302.687-331.33 302.687-68.787 0-135.87-19.559-191.94-55.963" transform="matrix(-.32164 .04139 .21866 .0943 2062.47 -10.476)" fill="none" stroke="#e9e9e9" stroke-width="7.376"/><path d="M6339.717 610.091c0 167.17-148.341 302.687-331.33 302.687-68.787 0-135.87-19.559-191.94-55.963" transform="matrix(-.31352 .03685 .21313 .08394 2013.895 4.483)" fill="none" stroke="#e9e9e9" stroke-width="7.376"/><path d="M6339.717 610.091c0 167.17-148.341 302.687-331.33 302.687-68.787 0-135.87-19.559-191.94-55.963" transform="matrix(-.28375 .04037 .1929 .09197 1848.582 -43.725)" fill="none" stroke="#e9e9e9" stroke-width="7.376"/><path d="M6339.717 610.091c0 167.17-148.341 302.687-331.33 302.687-68.787 0-135.87-19.559-191.94-55.963" transform="matrix(-.2524 .04224 .17158 .09623 1674.19 -76.464)" fill="none" stroke="#e9e9e9" stroke-width="7.376"/><path d="M6339.717 610.091c0 167.17-148.341 302.687-331.33 302.687-68.787 0-135.87-19.559-191.94-55.963" transform="matrix(-.19294 .02395 .13116 .05457 1341.152 46.75)" fill="none" stroke="#e9e9e9" stroke-width="7.376"/><path d="M6339.717 610.091c0 167.17-148.341 302.687-331.33 302.687-68.787 0-135.87-19.559-191.94-55.963" transform="matrix(.1287 .20246 -.00201 -.1713 -467.894 -820.259)" fill="none" stroke="#e9e9e9" stroke-width="7.376"/><path d="M6339.717 610.091c0 167.17-148.341 302.687-331.33 302.687-68.787 0-135.87-19.559-191.94-55.963" transform="matrix(.06705 -.23034 -.1273 .11463 -106.686 1602.22)" fill="none" stroke="#e9e9e9" stroke-width="7.376"/><path d="M6339.717 610.091c0 167.17-148.341 302.687-331.33 302.687-68.787 0-135.87-19.559-191.94-55.963" transform="matrix(.03623 .22503 .05049 -.15252 1.116 -970.585)" fill="none" stroke="#e9e9e9" stroke-width="7.376"/><path d="M226.475 361.503c2.091-41.081-14.105-78.164-36.176-82.827-22.07-4.664-41.656 24.859-43.747 65.94a139.356 139.356 0 0 0 .116 16.117" fill="#e9e9e9"/><path d="M197.859 361.65c2.117-39.953-14.283-76.018-36.631-80.553-22.348-4.535-42.181 24.177-44.298 64.13a130.182 130.182 0 0 0 .117 15.675" fill="#fff"/><path d="M181.635 361.15c1.42-26.785-9.575-50.962-24.557-54.003-14.982-3.04-28.277 16.208-29.697 42.992a87.272 87.272 0 0 0 .079 10.508" fill="#e9e9e9"/><g fill="#f3f3f3"><path d="M353.606 361.658c0 13.24 18.15 23.975 40.54 23.975s40.54-10.734 40.54-23.975c0-13.241-18.15-23.975-40.54-23.975s-40.54 10.734-40.54 23.975z"/><path d="M287.027 378.919c0 13.241 18.15 23.975 40.54 23.975s40.54-10.734 40.54-23.975c0-13.241-18.15-23.975-40.54-23.975s-40.54 10.734-40.54 23.975zM99.62 366.59c0 13.24 18.15 23.975 40.54 23.975s40.54-10.734 40.54-23.976c0-13.24-18.15-23.975-40.54-23.975s-40.54 10.734-40.54 23.975z"/><path d="M155.678 385.414c0 13.241 18.15 23.975 40.54 23.975s40.54-10.734 40.54-23.975c0-13.241-18.15-23.975-40.54-23.975s-40.54 10.734-40.54 23.975z"/><path d="M214.962 385.414c0 13.241 18.15 23.975 40.54 23.975s40.54-10.734 40.54-23.975c0-13.241-18.15-23.975-40.54-23.975s-40.54 10.734-40.54 23.975z"/></g></svg>